<svg width="1750" height="269" viewBox="0 0 1750 269" fill="none" xmlns="http://www.w3.org/2000/svg">
<g clip-path="url(#clip0_100_183)">
<mask id="mask0_100_183" style="mask-type:luminance" maskUnits="userSpaceOnUse" x="0" y="0" width="1750" height="269">
<path d="M1750 0H0V268.145H1750V0Z" fill="white"/>
</mask>
<g mask="url(#mask0_100_183)">
<mask id="mask1_100_183" style="mask-type:luminance" maskUnits="userSpaceOnUse" x="-128" y="-78" width="425" height="424">
<path d="M-127.016 -77.6211H296.371V345.766H-127.016V-77.6211Z" fill="white"/>
</mask>
<g mask="url(#mask1_100_183)">
<mask id="mask2_100_183" style="mask-type:luminance" maskUnits="userSpaceOnUse" x="-4" y="56" width="36" height="43">
<path d="M31.7539 98.79H-3.52835V56.4513H31.7539V98.79Z" fill="white"/>
</mask>
<g mask="url(#mask2_100_183)">
<path d="M0 95.2618C0 97.2094 1.58065 98.79 3.52823 98.79H31.754V56.4513H3.52823C1.58065 56.4513 0 58.032 0 59.9796V95.2618Z" fill="white"/>
</g>
<mask id="mask3_100_183" style="mask-type:luminance" maskUnits="userSpaceOnUse" x="24" y="56" width="36" height="43">
<path d="M59.9805 98.79H24.6982V56.4513H59.9805V98.79Z" fill="white"/>
</mask>
<g mask="url(#mask3_100_183)">
<path d="M56.4531 95.2618C56.4531 97.2094 54.8725 98.79 52.9249 98.79H24.6991V56.4513H52.9249C54.8725 56.4513 56.4531 58.032 56.4531 59.9796V95.2618Z" fill="white"/>
</g>
<mask id="mask4_100_183" style="mask-type:luminance" maskUnits="userSpaceOnUse" x="-4" y="112" width="36" height="44">
<path d="M31.7539 155.242H-3.52835V112.903H31.7539V155.242Z" fill="white"/>
</mask>
<g mask="url(#mask4_100_183)">
<path d="M0 151.714C0 153.662 1.58065 155.242 3.52823 155.242H31.754V112.903H3.52823C1.58065 112.903 0 114.484 0 116.432V151.714Z" fill="white"/>
</g>
<mask id="mask5_100_183" style="mask-type:luminance" maskUnits="userSpaceOnUse" x="24" y="112" width="36" height="44">
<path d="M59.9805 155.242H24.6982V112.903H59.9805V155.242Z" fill="white"/>
</mask>
<g mask="url(#mask5_100_183)">
<path d="M56.4531 151.714C56.4531 153.662 54.8725 155.242 52.9249 155.242H24.6991V112.903H52.9249C54.8725 112.903 56.4531 114.484 56.4531 116.432V151.714Z" fill="white"/>
</g>
<mask id="mask6_100_183" style="mask-type:luminance" maskUnits="userSpaceOnUse" x="-4" y="169" width="36" height="43">
<path d="M31.7539 211.693H-3.52835V169.355H31.7539V211.693Z" fill="white"/>
</mask>
<g mask="url(#mask6_100_183)">
<path d="M0 208.165C0 210.113 1.58065 211.693 3.52823 211.693H31.754V169.355H3.52823C1.58065 169.355 0 170.935 0 172.883V208.165Z" fill="white"/>
</g>
<mask id="mask7_100_183" style="mask-type:luminance" maskUnits="userSpaceOnUse" x="24" y="169" width="36" height="43">
<path d="M59.9805 211.693H24.6982V169.355H59.9805V211.693Z" fill="white"/>
</mask>
<g mask="url(#mask7_100_183)">
<path d="M56.4531 208.165C56.4531 210.113 54.8725 211.693 52.9249 211.693H24.6991V169.355H52.9249C54.8725 169.355 56.4531 170.935 56.4531 172.883V208.165Z" fill="white"/>
</g>
<mask id="mask8_100_183" style="mask-type:luminance" maskUnits="userSpaceOnUse" x="24" y="225" width="36" height="44">
<path d="M59.9805 268.145H24.6982V225.806H59.9805V268.145Z" fill="white"/>
</mask>
<g mask="url(#mask8_100_183)">
<path d="M28.2266 264.616C28.2266 266.564 29.8072 268.145 31.7548 268.145H59.9806V225.806H31.7548C29.8072 225.806 28.2266 227.386 28.2266 229.334V264.616Z" fill="white"/>
</g>
<mask id="mask9_100_183" style="mask-type:luminance" maskUnits="userSpaceOnUse" x="52" y="225" width="37" height="44">
<path d="M88.2051 268.145H52.9228V225.806H88.2051V268.145Z" fill="white"/>
</mask>
<g mask="url(#mask9_100_183)">
<path d="M52.9228 268.145V225.806H88.2051V268.145H52.9228Z" fill="white"/>
</g>
<mask id="mask10_100_183" style="mask-type:luminance" maskUnits="userSpaceOnUse" x="81" y="225" width="36" height="44">
<path d="M116.432 268.145H81.1494V225.806H116.432V268.145Z" fill="white"/>
</mask>
<g mask="url(#mask10_100_183)">
<path d="M81.1494 268.145V225.806H116.432V268.145H81.1494Z" fill="white"/>
</g>
<mask id="mask11_100_183" style="mask-type:luminance" maskUnits="userSpaceOnUse" x="109" y="225" width="36" height="44">
<path d="M144.656 268.145H109.374V225.806H144.656V268.145Z" fill="white"/>
</mask>
<g mask="url(#mask11_100_183)">
<path d="M141.127 264.616C141.127 266.564 139.546 268.145 137.599 268.145H109.373V225.806H137.599C139.546 225.806 141.127 227.386 141.127 229.334V264.616Z" fill="white"/>
</g>
<mask id="mask12_100_183" style="mask-type:luminance" maskUnits="userSpaceOnUse" x="109" y="169" width="36" height="43">
<path d="M144.656 211.693H109.374V169.355H144.656V211.693Z" fill="white"/>
</mask>
<g mask="url(#mask12_100_183)">
<path d="M112.902 208.165C112.902 210.113 114.483 211.693 116.431 211.693H144.656V169.355H116.431C114.483 169.355 112.902 170.935 112.902 172.883V208.165Z" fill="white"/>
</g>
<mask id="mask13_100_183" style="mask-type:luminance" maskUnits="userSpaceOnUse" x="137" y="169" width="36" height="43">
<path d="M172.883 211.693H137.601V169.355H172.883V211.693Z" fill="white"/>
</mask>
<g mask="url(#mask13_100_183)">
<path d="M169.355 208.165C169.355 210.113 167.775 211.693 165.827 211.693H137.601V169.355H165.827C167.775 169.355 169.355 170.935 169.355 172.883V208.165Z" fill="white"/>
</g>
<mask id="mask14_100_183" style="mask-type:luminance" maskUnits="userSpaceOnUse" x="24" y="0" width="36" height="43">
<path d="M59.9805 42.3389H24.6982V0.000156403H59.9805V42.3389Z" fill="white"/>
</mask>
<g mask="url(#mask14_100_183)">
<path d="M28.2266 38.8106C28.2266 40.7582 29.8072 42.3389 31.7548 42.3389H59.9806V0.000156403H31.7548C29.8072 0.000156403 28.2266 1.5808 28.2266 3.52838V38.8106Z" fill="white"/>
</g>
<mask id="mask15_100_183" style="mask-type:luminance" maskUnits="userSpaceOnUse" x="52" y="0" width="37" height="43">
<path d="M88.2051 42.3389H52.9228V0.000156403H88.2051V42.3389Z" fill="white"/>
</mask>
<g mask="url(#mask15_100_183)">
<path d="M52.9228 42.3389V0.000156403H88.2051V42.3389H52.9228Z" fill="white"/>
</g>
<mask id="mask16_100_183" style="mask-type:luminance" maskUnits="userSpaceOnUse" x="81" y="0" width="36" height="43">
<path d="M116.432 42.3389H81.1494V0.000156403H116.432V42.3389Z" fill="white"/>
</mask>
<g mask="url(#mask16_100_183)">
<path d="M81.1494 42.3389V0.000156403H116.432V42.3389H81.1494Z" fill="white"/>
</g>
<mask id="mask17_100_183" style="mask-type:luminance" maskUnits="userSpaceOnUse" x="109" y="0" width="36" height="43">
<path d="M144.656 42.3389H109.374V0.000156403H144.656V42.3389Z" fill="white"/>
</mask>
<g mask="url(#mask17_100_183)">
<path d="M109.374 42.3389V0.000156403H144.656V42.3389H109.374Z" fill="white"/>
</g>
<mask id="mask18_100_183" style="mask-type:luminance" maskUnits="userSpaceOnUse" x="137" y="0" width="36" height="43">
<path d="M172.883 42.3389H137.601V0.000156403H172.883V42.3389Z" fill="white"/>
</mask>
<g mask="url(#mask18_100_183)">
<path d="M169.355 38.8106C169.355 40.7582 167.775 42.3389 165.827 42.3389H137.601V0.000156403H165.827C167.775 0.000156403 169.355 1.5808 169.355 3.52838V38.8106Z" fill="white"/>
</g>
<mask id="mask19_100_183" style="mask-type:luminance" maskUnits="userSpaceOnUse" x="109" y="56" width="36" height="43">
<path d="M144.656 98.79H109.374V56.4513H144.656V98.79Z" fill="white"/>
</mask>
<g mask="url(#mask19_100_183)">
<path d="M112.902 95.2618C112.902 97.2094 114.483 98.79 116.431 98.79H144.656V56.4513H116.431C114.483 56.4513 112.902 58.032 112.902 59.9796V95.2618Z" fill="white"/>
</g>
<mask id="mask20_100_183" style="mask-type:luminance" maskUnits="userSpaceOnUse" x="137" y="56" width="36" height="43">
<path d="M172.883 98.79H137.601V56.4513H172.883V98.79Z" fill="white"/>
</mask>
<g mask="url(#mask20_100_183)">
<path d="M169.355 95.2618C169.355 97.2094 167.775 98.79 165.827 98.79H137.601V56.4513H165.827C167.775 56.4513 169.355 58.032 169.355 59.9796V95.2618Z" fill="white"/>
</g>
</g>
<mask id="mask21_100_183" style="mask-type:luminance" maskUnits="userSpaceOnUse" x="70" y="-78" width="424" height="424">
<path d="M70.5645 -77.6211H493.952V345.766H70.5645V-77.6211Z" fill="white"/>
</mask>
<g mask="url(#mask21_100_183)">
<mask id="mask22_100_183" style="mask-type:luminance" maskUnits="userSpaceOnUse" x="194" y="56" width="36" height="43">
<path d="M229.334 98.79H194.052V56.4513H229.334V98.79Z" fill="white"/>
</mask>
<g mask="url(#mask22_100_183)">
<path d="M197.58 95.2618C197.58 97.2094 199.161 98.79 201.108 98.79H229.334V56.4513H201.108C199.161 56.4513 197.58 58.032 197.58 59.9796V95.2618Z" fill="white"/>
</g>
<mask id="mask23_100_183" style="mask-type:luminance" maskUnits="userSpaceOnUse" x="222" y="56" width="36" height="43">
<path d="M257.561 98.79H222.278V56.4513H257.561V98.79Z" fill="white"/>
</mask>
<g mask="url(#mask23_100_183)">
<path d="M254.033 95.2618C254.033 97.2094 252.453 98.79 250.505 98.79H222.279V56.4513H250.505C252.453 56.4513 254.033 58.032 254.033 59.9796V95.2618Z" fill="white"/>
</g>
<mask id="mask24_100_183" style="mask-type:luminance" maskUnits="userSpaceOnUse" x="194" y="112" width="36" height="44">
<path d="M229.334 155.242H194.052V112.903H229.334V155.242Z" fill="white"/>
</mask>
<g mask="url(#mask24_100_183)">
<path d="M197.58 151.714C197.58 153.662 199.161 155.242 201.108 155.242H229.334V112.903H201.108C199.161 112.903 197.58 114.484 197.58 116.432V151.714Z" fill="white"/>
</g>
<mask id="mask25_100_183" style="mask-type:luminance" maskUnits="userSpaceOnUse" x="222" y="112" width="36" height="44">
<path d="M257.561 155.242H222.278V112.903H257.561V155.242Z" fill="white"/>
</mask>
<g mask="url(#mask25_100_183)">
<path d="M254.033 151.714C254.033 153.662 252.453 155.242 250.505 155.242H222.279V112.903H250.505C252.453 112.903 254.033 114.484 254.033 116.432V151.714Z" fill="white"/>
</g>
<mask id="mask26_100_183" style="mask-type:luminance" maskUnits="userSpaceOnUse" x="194" y="169" width="36" height="43">
<path d="M229.334 211.693H194.052V169.355H229.334V211.693Z" fill="white"/>
</mask>
<g mask="url(#mask26_100_183)">
<path d="M197.58 208.165C197.58 210.113 199.161 211.693 201.108 211.693H229.334V169.355H201.108C199.161 169.355 197.58 170.935 197.58 172.883V208.165Z" fill="white"/>
</g>
<mask id="mask27_100_183" style="mask-type:luminance" maskUnits="userSpaceOnUse" x="222" y="169" width="36" height="43">
<path d="M257.561 211.693H222.278V169.355H257.561V211.693Z" fill="white"/>
</mask>
<g mask="url(#mask27_100_183)">
<path d="M254.033 208.165C254.033 210.113 252.453 211.693 250.505 211.693H222.279V169.355H250.505C252.453 169.355 254.033 170.935 254.033 172.883V208.165Z" fill="white"/>
</g>
<mask id="mask28_100_183" style="mask-type:luminance" maskUnits="userSpaceOnUse" x="222" y="225" width="36" height="44">
<path d="M257.561 268.145H222.278V225.806H257.561V268.145Z" fill="white"/>
</mask>
<g mask="url(#mask28_100_183)">
<path d="M225.807 264.616C225.807 266.564 227.387 268.145 229.335 268.145H257.561V225.806H229.335C227.387 225.806 225.807 227.386 225.807 229.334V264.616Z" fill="white"/>
</g>
<mask id="mask29_100_183" style="mask-type:luminance" maskUnits="userSpaceOnUse" x="250" y="225" width="36" height="44">
<path d="M285.785 268.145H250.503V225.806H285.785V268.145Z" fill="white"/>
</mask>
<g mask="url(#mask29_100_183)">
<path d="M250.503 268.145V225.806H285.785V268.145H250.503Z" fill="white"/>
</g>
<mask id="mask30_100_183" style="mask-type:luminance" maskUnits="userSpaceOnUse" x="278" y="225" width="37" height="44">
<path d="M314.012 268.145H278.729V225.806H314.012V268.145Z" fill="white"/>
</mask>
<g mask="url(#mask30_100_183)">
<path d="M278.729 268.145V225.806H314.012V268.145H278.729Z" fill="white"/>
</g>
<mask id="mask31_100_183" style="mask-type:luminance" maskUnits="userSpaceOnUse" x="306" y="225" width="37" height="44">
<path d="M342.236 268.145H306.954V225.806H342.236V268.145Z" fill="white"/>
</mask>
<g mask="url(#mask31_100_183)">
<path d="M338.707 264.616C338.707 266.564 337.126 268.145 335.179 268.145H306.953V225.806H335.179C337.126 225.806 338.707 227.386 338.707 229.334V264.616Z" fill="white"/>
</g>
<mask id="mask32_100_183" style="mask-type:luminance" maskUnits="userSpaceOnUse" x="222" y="0" width="36" height="43">
<path d="M257.561 42.3389H222.278V0.000156403H257.561V42.3389Z" fill="white"/>
</mask>
<g mask="url(#mask32_100_183)">
<path d="M225.807 38.8106C225.807 40.7582 227.387 42.3389 229.335 42.3389H257.561V0.000156403H229.335C227.387 0.000156403 225.807 1.5808 225.807 3.52838V38.8106Z" fill="white"/>
</g>
<mask id="mask33_100_183" style="mask-type:luminance" maskUnits="userSpaceOnUse" x="250" y="0" width="36" height="43">
<path d="M285.785 42.3389H250.503V0.000156403H285.785V42.3389Z" fill="white"/>
</mask>
<g mask="url(#mask33_100_183)">
<path d="M250.503 42.3389V0.000156403H285.785V42.3389H250.503Z" fill="white"/>
</g>
<mask id="mask34_100_183" style="mask-type:luminance" maskUnits="userSpaceOnUse" x="278" y="0" width="37" height="43">
<path d="M314.012 42.3389H278.729V0.000156403H314.012V42.3389Z" fill="white"/>
</mask>
<g mask="url(#mask34_100_183)">
<path d="M278.729 42.3389V0.000156403H314.012V42.3389H278.729Z" fill="white"/>
</g>
<mask id="mask35_100_183" style="mask-type:luminance" maskUnits="userSpaceOnUse" x="306" y="0" width="37" height="43">
<path d="M342.236 42.3389H306.954V0.000156403H342.236V42.3389Z" fill="white"/>
</mask>
<g mask="url(#mask35_100_183)">
<path d="M338.707 38.8106C338.707 40.7582 337.126 42.3389 335.179 42.3389H306.953V0.000156403H335.179C337.126 0.000156403 338.707 1.5808 338.707 3.52838V38.8106Z" fill="white"/>
</g>
<mask id="mask36_100_183" style="mask-type:luminance" maskUnits="userSpaceOnUse" x="306" y="56" width="37" height="43">
<path d="M342.236 98.79H306.954V56.4513H342.236V98.79Z" fill="white"/>
</mask>
<g mask="url(#mask36_100_183)">
<path d="M310.482 95.2618C310.482 97.2094 312.063 98.79 314.011 98.79H342.236V56.4513H314.011C312.063 56.4513 310.482 58.032 310.482 59.9796V95.2618Z" fill="white"/>
</g>
<mask id="mask37_100_183" style="mask-type:luminance" maskUnits="userSpaceOnUse" x="335" y="56" width="36" height="43">
<path d="M370.463 98.79H335.181V56.4513H370.463V98.79Z" fill="white"/>
</mask>
<g mask="url(#mask37_100_183)">
<path d="M366.936 95.2618C366.936 97.2094 365.355 98.79 363.407 98.79H335.182V56.4513H363.407C365.355 56.4513 366.936 58.032 366.936 59.9796V95.2618Z" fill="white"/>
</g>
<mask id="mask38_100_183" style="mask-type:luminance" maskUnits="userSpaceOnUse" x="306" y="112" width="37" height="44">
<path d="M342.236 155.242H306.954V112.903H342.236V155.242Z" fill="white"/>
</mask>
<g mask="url(#mask38_100_183)">
<path d="M310.482 151.714C310.482 153.662 312.063 155.242 314.011 155.242H342.236V112.903H314.011C312.063 112.903 310.482 114.484 310.482 116.432V151.714Z" fill="white"/>
</g>
<mask id="mask39_100_183" style="mask-type:luminance" maskUnits="userSpaceOnUse" x="335" y="112" width="36" height="44">
<path d="M370.463 155.242H335.181V112.903H370.463V155.242Z" fill="white"/>
</mask>
<g mask="url(#mask39_100_183)">
<path d="M366.936 151.714C366.936 153.662 365.355 155.242 363.407 155.242H335.182V112.903H363.407C365.355 112.903 366.936 114.484 366.936 116.432V151.714Z" fill="white"/>
</g>
<mask id="mask40_100_183" style="mask-type:luminance" maskUnits="userSpaceOnUse" x="306" y="169" width="37" height="43">
<path d="M342.236 211.693H306.954V169.355H342.236V211.693Z" fill="white"/>
</mask>
<g mask="url(#mask40_100_183)">
<path d="M310.482 208.165C310.482 210.113 312.063 211.693 314.011 211.693H342.236V169.355H314.011C312.063 169.355 310.482 170.935 310.482 172.883V208.165Z" fill="white"/>
</g>
<mask id="mask41_100_183" style="mask-type:luminance" maskUnits="userSpaceOnUse" x="335" y="169" width="36" height="43">
<path d="M370.463 211.693H335.181V169.355H370.463V211.693Z" fill="white"/>
</mask>
<g mask="url(#mask41_100_183)">
<path d="M366.936 208.165C366.936 210.113 365.355 211.693 363.407 211.693H335.182V169.355H363.407C365.355 169.355 366.936 170.935 366.936 172.883V208.165Z" fill="white"/>
</g>
</g>
<mask id="mask42_100_183" style="mask-type:luminance" maskUnits="userSpaceOnUse" x="254" y="-78" width="424" height="424">
<path d="M254.033 -77.6211H677.42V345.766H254.033V-77.6211Z" fill="white"/>
</mask>
<g mask="url(#mask42_100_183)">
<mask id="mask43_100_183" style="mask-type:luminance" maskUnits="userSpaceOnUse" x="363" y="0" width="36" height="43">
<path d="M398.691 42.3389H363.409V0.000156403H398.691V42.3389Z" fill="white"/>
</mask>
<g mask="url(#mask43_100_183)">
<path d="M366.938 38.8106C366.938 40.7582 368.518 42.3389 370.466 42.3389H398.692V0.000156403H370.466C368.518 0.000156403 366.938 1.5808 366.938 3.52838V38.8106Z" fill="white"/>
</g>
<mask id="mask44_100_183" style="mask-type:luminance" maskUnits="userSpaceOnUse" x="391" y="0" width="36" height="43">
<path d="M426.918 42.3389H391.636V0.000156403H426.918V42.3389Z" fill="white"/>
</mask>
<g mask="url(#mask44_100_183)">
<path d="M423.391 38.8106C423.391 40.7582 421.81 42.3389 419.862 42.3389H391.637V0.000156403H419.862C421.81 0.000156403 423.391 1.5808 423.391 3.52838V38.8106Z" fill="white"/>
</g>
<mask id="mask45_100_183" style="mask-type:luminance" maskUnits="userSpaceOnUse" x="391" y="56" width="36" height="43">
<path d="M426.918 98.79H391.636V56.4513H426.918V98.79Z" fill="white"/>
</mask>
<g mask="url(#mask45_100_183)">
<path d="M395.164 95.2618C395.164 97.2094 396.745 98.79 398.692 98.79H426.918V56.4513H398.692C396.745 56.4513 395.164 58.032 395.164 59.9796V95.2618Z" fill="white"/>
</g>
<mask id="mask46_100_183" style="mask-type:luminance" maskUnits="userSpaceOnUse" x="419" y="56" width="37" height="43">
<path d="M455.143 98.79H419.86V56.4513H455.143V98.79Z" fill="white"/>
</mask>
<g mask="url(#mask46_100_183)">
<path d="M451.615 95.2618C451.615 97.2094 450.035 98.79 448.087 98.79H419.861V56.4513H448.087C450.035 56.4513 451.615 58.032 451.615 59.9796V95.2618Z" fill="white"/>
</g>
<mask id="mask47_100_183" style="mask-type:luminance" maskUnits="userSpaceOnUse" x="391" y="112" width="36" height="44">
<path d="M426.918 155.242H391.636V112.903H426.918V155.242Z" fill="white"/>
</mask>
<g mask="url(#mask47_100_183)">
<path d="M395.164 151.714C395.164 153.662 396.745 155.242 398.692 155.242H426.918V112.903H398.692C396.745 112.903 395.164 114.484 395.164 116.432V151.714Z" fill="white"/>
</g>
<mask id="mask48_100_183" style="mask-type:luminance" maskUnits="userSpaceOnUse" x="419" y="112" width="37" height="44">
<path d="M455.143 155.242H419.86V112.903H455.143V155.242Z" fill="white"/>
</mask>
<g mask="url(#mask48_100_183)">
<path d="M451.615 151.714C451.615 153.662 450.035 155.242 448.087 155.242H419.861V112.903H448.087C450.035 112.903 451.615 114.484 451.615 116.432V151.714Z" fill="white"/>
</g>
<mask id="mask49_100_183" style="mask-type:luminance" maskUnits="userSpaceOnUse" x="391" y="169" width="36" height="43">
<path d="M426.918 211.693H391.636V169.355H426.918V211.693Z" fill="white"/>
</mask>
<g mask="url(#mask49_100_183)">
<path d="M395.164 208.165C395.164 210.113 396.745 211.693 398.692 211.693H426.918V169.355H398.692C396.745 169.355 395.164 170.935 395.164 172.883V208.165Z" fill="white"/>
</g>
<mask id="mask50_100_183" style="mask-type:luminance" maskUnits="userSpaceOnUse" x="419" y="169" width="37" height="43">
<path d="M455.143 211.693H419.86V169.355H455.143V211.693Z" fill="white"/>
</mask>
<g mask="url(#mask50_100_183)">
<path d="M451.615 208.165C451.615 210.113 450.035 211.693 448.087 211.693H419.861V169.355H448.087C450.035 169.355 451.615 170.935 451.615 172.883V208.165Z" fill="white"/>
</g>
<mask id="mask51_100_183" style="mask-type:luminance" maskUnits="userSpaceOnUse" x="391" y="225" width="36" height="44">
<path d="M426.918 268.145H391.636V225.806H426.918V268.145Z" fill="white"/>
</mask>
<g mask="url(#mask51_100_183)">
<path d="M395.164 264.616C395.164 266.564 396.745 268.145 398.692 268.145H426.918V225.806H398.692C396.745 225.806 395.164 227.386 395.164 229.334V264.616Z" fill="white"/>
</g>
<mask id="mask52_100_183" style="mask-type:luminance" maskUnits="userSpaceOnUse" x="419" y="225" width="37" height="44">
<path d="M455.143 268.145H419.86V225.806H455.143V268.145Z" fill="white"/>
</mask>
<g mask="url(#mask52_100_183)">
<path d="M451.615 264.616C451.615 266.564 450.035 268.145 448.087 268.145H419.861V225.806H448.087C450.035 225.806 451.615 227.386 451.615 229.334V264.616Z" fill="white"/>
</g>
<mask id="mask53_100_183" style="mask-type:luminance" maskUnits="userSpaceOnUse" x="448" y="0" width="36" height="43">
<path d="M483.369 42.3389H448.087V0.000156403H483.369V42.3389Z" fill="white"/>
</mask>
<g mask="url(#mask53_100_183)">
<path d="M451.615 38.8106C451.615 40.7582 453.196 42.3389 455.143 42.3389H483.369V0.000156403H455.143C453.196 0.000156403 451.615 1.5808 451.615 3.52838V38.8106Z" fill="white"/>
</g>
<mask id="mask54_100_183" style="mask-type:luminance" maskUnits="userSpaceOnUse" x="476" y="0" width="36" height="43">
<path d="M511.596 42.3389H476.313V0.000156403H511.596V42.3389Z" fill="white"/>
</mask>
<g mask="url(#mask54_100_183)">
<path d="M476.313 42.3389V0.000156403H511.596V42.3389H476.313Z" fill="white"/>
</g>
<mask id="mask55_100_183" style="mask-type:luminance" maskUnits="userSpaceOnUse" x="504" y="0" width="36" height="43">
<path d="M539.82 42.3389H504.538V0.000156403H539.82V42.3389Z" fill="white"/>
</mask>
<g mask="url(#mask55_100_183)">
<path d="M536.291 38.8106C536.291 40.7582 534.71 42.3389 532.763 42.3389H504.537V0.000156403H532.763C534.71 0.000156403 536.291 1.5808 536.291 3.52838V38.8106Z" fill="white"/>
</g>
<mask id="mask56_100_183" style="mask-type:luminance" maskUnits="userSpaceOnUse" x="504" y="56" width="36" height="43">
<path d="M539.82 98.79H504.538V56.4513H539.82V98.79Z" fill="white"/>
</mask>
<g mask="url(#mask56_100_183)">
<path d="M508.066 95.2618C508.066 97.2094 509.647 98.79 511.595 98.79H539.82V56.4513H511.595C509.647 56.4513 508.066 58.032 508.066 59.9796V95.2618Z" fill="white"/>
</g>
<mask id="mask57_100_183" style="mask-type:luminance" maskUnits="userSpaceOnUse" x="532" y="56" width="37" height="43">
<path d="M568.047 98.79H532.765V56.4513H568.047V98.79Z" fill="white"/>
</mask>
<g mask="url(#mask57_100_183)">
<path d="M564.52 95.2618C564.52 97.2094 562.939 98.79 560.991 98.79H532.765V56.4513H560.991C562.939 56.4513 564.52 58.032 564.52 59.9796V95.2618Z" fill="white"/>
</g>
<mask id="mask58_100_183" style="mask-type:luminance" maskUnits="userSpaceOnUse" x="504" y="112" width="36" height="44">
<path d="M539.82 155.242H504.538V112.903H539.82V155.242Z" fill="white"/>
</mask>
<g mask="url(#mask58_100_183)">
<path d="M508.066 151.714C508.066 153.662 509.647 155.242 511.595 155.242H539.82V112.903H511.595C509.647 112.903 508.066 114.484 508.066 116.432V151.714Z" fill="white"/>
</g>
<mask id="mask59_100_183" style="mask-type:luminance" maskUnits="userSpaceOnUse" x="532" y="112" width="37" height="44">
<path d="M568.047 155.242H532.765V112.903H568.047V155.242Z" fill="white"/>
</mask>
<g mask="url(#mask59_100_183)">
<path d="M564.52 151.714C564.52 153.662 562.939 155.242 560.991 155.242H532.765V112.903H560.991C562.939 112.903 564.52 114.484 564.52 116.432V151.714Z" fill="white"/>
</g>
<mask id="mask60_100_183" style="mask-type:luminance" maskUnits="userSpaceOnUse" x="504" y="169" width="36" height="43">
<path d="M539.82 211.693H504.538V169.355H539.82V211.693Z" fill="white"/>
</mask>
<g mask="url(#mask60_100_183)">
<path d="M508.066 208.165C508.066 210.113 509.647 211.693 511.595 211.693H539.82V169.355H511.595C509.647 169.355 508.066 170.935 508.066 172.883V208.165Z" fill="white"/>
</g>
<mask id="mask61_100_183" style="mask-type:luminance" maskUnits="userSpaceOnUse" x="532" y="169" width="37" height="43">
<path d="M568.047 211.693H532.765V169.355H568.047V211.693Z" fill="white"/>
</mask>
<g mask="url(#mask61_100_183)">
<path d="M564.52 208.165C564.52 210.113 562.939 211.693 560.991 211.693H532.765V169.355H560.991C562.939 169.355 564.52 170.935 564.52 172.883V208.165Z" fill="white"/>
</g>
<mask id="mask62_100_183" style="mask-type:luminance" maskUnits="userSpaceOnUse" x="504" y="225" width="36" height="44">
<path d="M539.82 268.145H504.538V225.806H539.82V268.145Z" fill="white"/>
</mask>
<g mask="url(#mask62_100_183)">
<path d="M508.066 264.616C508.066 266.564 509.647 268.145 511.595 268.145H539.82V225.806H511.595C509.647 225.806 508.066 227.386 508.066 229.334V264.616Z" fill="white"/>
</g>
<mask id="mask63_100_183" style="mask-type:luminance" maskUnits="userSpaceOnUse" x="532" y="225" width="37" height="44">
<path d="M568.047 268.145H532.765V225.806H568.047V268.145Z" fill="white"/>
</mask>
<g mask="url(#mask63_100_183)">
<path d="M564.52 264.616C564.52 266.564 562.939 268.145 560.991 268.145H532.765V225.806H560.991C562.939 225.806 564.52 227.386 564.52 229.334V264.616Z" fill="white"/>
</g>
</g>
<mask id="mask64_100_183" style="mask-type:luminance" maskUnits="userSpaceOnUse" x="465" y="-78" width="425" height="424">
<path d="M465.727 -77.6211H889.114V345.766H465.727V-77.6211Z" fill="white"/>
</mask>
<g mask="url(#mask64_100_183)">
<mask id="mask65_100_183" style="mask-type:luminance" maskUnits="userSpaceOnUse" x="589" y="56" width="36" height="43">
<path d="M624.496 98.79H589.214V56.4513H624.496V98.79Z" fill="white"/>
</mask>
<g mask="url(#mask65_100_183)">
<path d="M592.742 95.2618C592.742 97.2094 594.323 98.79 596.27 98.79H624.496V56.4513H596.27C594.323 56.4513 592.742 58.032 592.742 59.9796V95.2618Z" fill="white"/>
</g>
<mask id="mask66_100_183" style="mask-type:luminance" maskUnits="userSpaceOnUse" x="617" y="56" width="36" height="43">
<path d="M652.723 98.79H617.44V56.4513H652.723V98.79Z" fill="white"/>
</mask>
<g mask="url(#mask66_100_183)">
<path d="M649.195 95.2618C649.195 97.2094 647.615 98.79 645.667 98.79H617.441V56.4513H645.667C647.615 56.4513 649.195 58.032 649.195 59.9796V95.2618Z" fill="white"/>
</g>
<mask id="mask67_100_183" style="mask-type:luminance" maskUnits="userSpaceOnUse" x="589" y="112" width="36" height="44">
<path d="M624.496 155.242H589.214V112.903H624.496V155.242Z" fill="white"/>
</mask>
<g mask="url(#mask67_100_183)">
<path d="M592.742 151.714C592.742 153.662 594.323 155.242 596.27 155.242H624.496V112.903H596.27C594.323 112.903 592.742 114.484 592.742 116.432V151.714Z" fill="white"/>
</g>
<mask id="mask68_100_183" style="mask-type:luminance" maskUnits="userSpaceOnUse" x="617" y="112" width="36" height="44">
<path d="M652.723 155.242H617.44V112.903H652.723V155.242Z" fill="white"/>
</mask>
<g mask="url(#mask68_100_183)">
<path d="M649.195 151.714C649.195 153.662 647.615 155.242 645.667 155.242H617.441V112.903H645.667C647.615 112.903 649.195 114.484 649.195 116.432V151.714Z" fill="white"/>
</g>
<mask id="mask69_100_183" style="mask-type:luminance" maskUnits="userSpaceOnUse" x="589" y="169" width="36" height="43">
<path d="M624.496 211.693H589.214V169.355H624.496V211.693Z" fill="white"/>
</mask>
<g mask="url(#mask69_100_183)">
<path d="M592.742 208.165C592.742 210.113 594.323 211.693 596.27 211.693H624.496V169.355H596.27C594.323 169.355 592.742 170.935 592.742 172.883V208.165Z" fill="white"/>
</g>
<mask id="mask70_100_183" style="mask-type:luminance" maskUnits="userSpaceOnUse" x="617" y="169" width="36" height="43">
<path d="M652.723 211.693H617.44V169.355H652.723V211.693Z" fill="white"/>
</mask>
<g mask="url(#mask70_100_183)">
<path d="M649.195 208.165C649.195 210.113 647.615 211.693 645.667 211.693H617.441V169.355H645.667C647.615 169.355 649.195 170.935 649.195 172.883V208.165Z" fill="white"/>
</g>
<mask id="mask71_100_183" style="mask-type:luminance" maskUnits="userSpaceOnUse" x="617" y="225" width="36" height="44">
<path d="M652.723 268.145H617.44V225.806H652.723V268.145Z" fill="white"/>
</mask>
<g mask="url(#mask71_100_183)">
<path d="M620.969 264.616C620.969 266.564 622.549 268.145 624.497 268.145H652.723V225.806H624.497C622.549 225.806 620.969 227.386 620.969 229.334V264.616Z" fill="white"/>
</g>
<mask id="mask72_100_183" style="mask-type:luminance" maskUnits="userSpaceOnUse" x="645" y="225" width="36" height="44">
<path d="M680.947 268.145H645.665V225.806H680.947V268.145Z" fill="white"/>
</mask>
<g mask="url(#mask72_100_183)">
<path d="M645.665 268.145V225.806H680.947V268.145H645.665Z" fill="white"/>
</g>
<mask id="mask73_100_183" style="mask-type:luminance" maskUnits="userSpaceOnUse" x="673" y="225" width="37" height="44">
<path d="M709.174 268.145H673.892V225.806H709.174V268.145Z" fill="white"/>
</mask>
<g mask="url(#mask73_100_183)">
<path d="M673.892 268.145V225.806H709.174V268.145H673.892Z" fill="white"/>
</g>
<mask id="mask74_100_183" style="mask-type:luminance" maskUnits="userSpaceOnUse" x="702" y="225" width="36" height="44">
<path d="M737.398 268.145H702.116V225.806H737.398V268.145Z" fill="white"/>
</mask>
<g mask="url(#mask74_100_183)">
<path d="M733.869 264.616C733.869 266.564 732.288 268.145 730.341 268.145H702.115V225.806H730.341C732.288 225.806 733.869 227.386 733.869 229.334V264.616Z" fill="white"/>
</g>
<mask id="mask75_100_183" style="mask-type:luminance" maskUnits="userSpaceOnUse" x="589" y="0" width="36" height="43">
<path d="M624.496 42.3389H589.214V0.000156403H624.496V42.3389Z" fill="white"/>
</mask>
<g mask="url(#mask75_100_183)">
<path d="M592.742 38.8106C592.742 40.7582 594.323 42.3389 596.27 42.3389H624.496V0.000156403H596.27C594.323 0.000156403 592.742 1.5808 592.742 3.52838V38.8106Z" fill="white"/>
</g>
<mask id="mask76_100_183" style="mask-type:luminance" maskUnits="userSpaceOnUse" x="617" y="0" width="36" height="43">
<path d="M652.723 42.3389H617.44V0.000156403H652.723V42.3389Z" fill="white"/>
</mask>
<g mask="url(#mask76_100_183)">
<path d="M617.44 42.3389V0.000156403H652.723V42.3389H617.44Z" fill="white"/>
</g>
<mask id="mask77_100_183" style="mask-type:luminance" maskUnits="userSpaceOnUse" x="645" y="0" width="36" height="43">
<path d="M680.947 42.3389H645.665V0.000156403H680.947V42.3389Z" fill="white"/>
</mask>
<g mask="url(#mask77_100_183)">
<path d="M645.665 42.3389V0.000156403H680.947V42.3389H645.665Z" fill="white"/>
</g>
<mask id="mask78_100_183" style="mask-type:luminance" maskUnits="userSpaceOnUse" x="673" y="0" width="37" height="43">
<path d="M709.174 42.3389H673.892V0.000156403H709.174V42.3389Z" fill="white"/>
</mask>
<g mask="url(#mask78_100_183)">
<path d="M673.892 42.3389V0.000156403H709.174V42.3389H673.892Z" fill="white"/>
</g>
<mask id="mask79_100_183" style="mask-type:luminance" maskUnits="userSpaceOnUse" x="702" y="0" width="36" height="43">
<path d="M737.398 42.3389H702.116V0.000156403H737.398V42.3389Z" fill="white"/>
</mask>
<g mask="url(#mask79_100_183)">
<path d="M733.869 38.8106C733.869 40.7582 732.288 42.3389 730.341 42.3389H702.115V0.000156403H730.341C732.288 0.000156403 733.869 1.5808 733.869 3.52838V38.8106Z" fill="white"/>
</g>
<mask id="mask80_100_183" style="mask-type:luminance" maskUnits="userSpaceOnUse" x="702" y="56" width="36" height="43">
<path d="M737.398 98.79H702.116V56.4513H737.398V98.79Z" fill="white"/>
</mask>
<g mask="url(#mask80_100_183)">
<path d="M705.645 95.2618C705.645 97.2094 707.225 98.79 709.173 98.79H737.399V56.4513H709.173C707.225 56.4513 705.645 58.032 705.645 59.9796V95.2618Z" fill="white"/>
</g>
<mask id="mask81_100_183" style="mask-type:luminance" maskUnits="userSpaceOnUse" x="730" y="56" width="36" height="43">
<path d="M765.625 98.79H730.343V56.4513H765.625V98.79Z" fill="white"/>
</mask>
<g mask="url(#mask81_100_183)">
<path d="M762.098 95.2618C762.098 97.2094 760.517 98.79 758.569 98.79H730.344V56.4513H758.569C760.517 56.4513 762.098 58.032 762.098 59.9796V95.2618Z" fill="white"/>
</g>
<mask id="mask82_100_183" style="mask-type:luminance" maskUnits="userSpaceOnUse" x="702" y="112" width="36" height="44">
<path d="M737.398 155.242H702.116V112.903H737.398V155.242Z" fill="white"/>
</mask>
<g mask="url(#mask82_100_183)">
<path d="M705.645 151.714C705.645 153.662 707.225 155.242 709.173 155.242H737.399V112.903H709.173C707.225 112.903 705.645 114.484 705.645 116.432V151.714Z" fill="white"/>
</g>
<mask id="mask83_100_183" style="mask-type:luminance" maskUnits="userSpaceOnUse" x="730" y="112" width="36" height="44">
<path d="M765.625 155.242H730.343V112.903H765.625V155.242Z" fill="white"/>
</mask>
<g mask="url(#mask83_100_183)">
<path d="M762.098 151.714C762.098 153.662 760.517 155.242 758.569 155.242H730.344V112.903H758.569C760.517 112.903 762.098 114.484 762.098 116.432V151.714Z" fill="white"/>
</g>
<mask id="mask84_100_183" style="mask-type:luminance" maskUnits="userSpaceOnUse" x="702" y="169" width="36" height="43">
<path d="M737.398 211.693H702.116V169.355H737.398V211.693Z" fill="white"/>
</mask>
<g mask="url(#mask84_100_183)">
<path d="M705.645 208.165C705.645 210.113 707.225 211.693 709.173 211.693H737.399V169.355H709.173C707.225 169.355 705.645 170.935 705.645 172.883V208.165Z" fill="white"/>
</g>
<mask id="mask85_100_183" style="mask-type:luminance" maskUnits="userSpaceOnUse" x="730" y="169" width="36" height="43">
<path d="M765.625 211.693H730.343V169.355H765.625V211.693Z" fill="white"/>
</mask>
<g mask="url(#mask85_100_183)">
<path d="M762.098 208.165C762.098 210.113 760.517 211.693 758.569 211.693H730.344V169.355H758.569C760.517 169.355 762.098 170.935 762.098 172.883V208.165Z" fill="white"/>
</g>
</g>
<mask id="mask86_100_183" style="mask-type:luminance" maskUnits="userSpaceOnUse" x="677" y="-78" width="424" height="424">
<path d="M677.42 -77.6211H1100.81V345.766H677.42V-77.6211Z" fill="white"/>
</mask>
<g mask="url(#mask86_100_183)">
<mask id="mask87_100_183" style="mask-type:luminance" maskUnits="userSpaceOnUse" x="786" y="0" width="37" height="43">
<path d="M822.076 42.3389H786.794V0.000156403H822.076V42.3389Z" fill="white"/>
</mask>
<g mask="url(#mask87_100_183)">
<path d="M790.322 38.8106C790.322 40.7582 791.903 42.3389 793.85 42.3389H822.076V0.000156403H793.85C791.903 0.000156403 790.322 1.5808 790.322 3.52838V38.8106Z" fill="white"/>
</g>
<mask id="mask88_100_183" style="mask-type:luminance" maskUnits="userSpaceOnUse" x="815" y="0" width="36" height="43">
<path d="M850.303 42.3389H815.02V0.000156403H850.303V42.3389Z" fill="white"/>
</mask>
<g mask="url(#mask88_100_183)">
<path d="M846.775 38.8106C846.775 40.7582 845.195 42.3389 843.247 42.3389H815.021V0.000156403H843.247C845.195 0.000156403 846.775 1.5808 846.775 3.52838V38.8106Z" fill="white"/>
</g>
<mask id="mask89_100_183" style="mask-type:luminance" maskUnits="userSpaceOnUse" x="786" y="56" width="37" height="43">
<path d="M822.076 98.79H786.794V56.4513H822.076V98.79Z" fill="white"/>
</mask>
<g mask="url(#mask89_100_183)">
<path d="M790.322 95.2618C790.322 97.2094 791.903 98.79 793.85 98.79H822.076V56.4513H793.85C791.903 56.4513 790.322 58.032 790.322 59.9796V95.2618Z" fill="white"/>
</g>
<mask id="mask90_100_183" style="mask-type:luminance" maskUnits="userSpaceOnUse" x="815" y="56" width="36" height="43">
<path d="M850.303 98.79H815.02V56.4513H850.303V98.79Z" fill="white"/>
</mask>
<g mask="url(#mask90_100_183)">
<path d="M846.775 95.2618C846.775 97.2094 845.195 98.79 843.247 98.79H815.021V56.4513H843.247C845.195 56.4513 846.775 58.032 846.775 59.9796V95.2618Z" fill="white"/>
</g>
<mask id="mask91_100_183" style="mask-type:luminance" maskUnits="userSpaceOnUse" x="786" y="112" width="37" height="44">
<path d="M822.076 155.242H786.794V112.903H822.076V155.242Z" fill="white"/>
</mask>
<g mask="url(#mask91_100_183)">
<path d="M790.322 151.714C790.322 153.662 791.903 155.242 793.85 155.242H822.076V112.903H793.85C791.903 112.903 790.322 114.484 790.322 116.432V151.714Z" fill="white"/>
</g>
<mask id="mask92_100_183" style="mask-type:luminance" maskUnits="userSpaceOnUse" x="815" y="112" width="36" height="44">
<path d="M850.303 155.242H815.02V112.903H850.303V155.242Z" fill="white"/>
</mask>
<g mask="url(#mask92_100_183)">
<path d="M846.775 151.714C846.775 153.662 845.195 155.242 843.247 155.242H815.021V112.903H843.247C845.195 112.903 846.775 114.484 846.775 116.432V151.714Z" fill="white"/>
</g>
<mask id="mask93_100_183" style="mask-type:luminance" maskUnits="userSpaceOnUse" x="786" y="169" width="37" height="43">
<path d="M822.076 211.693H786.794V169.355H822.076V211.693Z" fill="white"/>
</mask>
<g mask="url(#mask93_100_183)">
<path d="M790.322 208.165C790.322 210.113 791.903 211.693 793.85 211.693H822.076V169.355H793.85C791.903 169.355 790.322 170.935 790.322 172.883V208.165Z" fill="white"/>
</g>
<mask id="mask94_100_183" style="mask-type:luminance" maskUnits="userSpaceOnUse" x="815" y="169" width="36" height="43">
<path d="M850.303 211.693H815.02V169.355H850.303V211.693Z" fill="white"/>
</mask>
<g mask="url(#mask94_100_183)">
<path d="M846.775 208.165C846.775 210.113 845.195 211.693 843.247 211.693H815.021V169.355H843.247C845.195 169.355 846.775 170.935 846.775 172.883V208.165Z" fill="white"/>
</g>
<mask id="mask95_100_183" style="mask-type:luminance" maskUnits="userSpaceOnUse" x="815" y="225" width="36" height="44">
<path d="M850.303 268.145H815.02V225.806H850.303V268.145Z" fill="white"/>
</mask>
<g mask="url(#mask95_100_183)">
<path d="M818.549 264.616C818.549 266.564 820.129 268.145 822.077 268.145H850.303V225.806H822.077C820.129 225.806 818.549 227.386 818.549 229.334V264.616Z" fill="white"/>
</g>
<mask id="mask96_100_183" style="mask-type:luminance" maskUnits="userSpaceOnUse" x="843" y="225" width="36" height="44">
<path d="M878.527 268.145H843.245V225.806H878.527V268.145Z" fill="white"/>
</mask>
<g mask="url(#mask96_100_183)">
<path d="M843.245 268.145V225.806H878.527V268.145H843.245Z" fill="white"/>
</g>
<mask id="mask97_100_183" style="mask-type:luminance" maskUnits="userSpaceOnUse" x="871" y="225" width="36" height="44">
<path d="M906.754 268.145H871.472V225.806H906.754V268.145Z" fill="white"/>
</mask>
<g mask="url(#mask97_100_183)">
<path d="M903.225 264.616C903.225 266.564 901.644 268.145 899.696 268.145H871.471V225.806H899.696C901.644 225.806 903.225 227.386 903.225 229.334V264.616Z" fill="white"/>
</g>
<mask id="mask98_100_183" style="mask-type:luminance" maskUnits="userSpaceOnUse" x="899" y="0" width="36" height="43">
<path d="M934.979 42.3389H899.696V0.000156403H934.979V42.3389Z" fill="white"/>
</mask>
<g mask="url(#mask98_100_183)">
<path d="M903.225 38.8106C903.225 40.7582 904.805 42.3389 906.753 42.3389H934.979V0.000156403H906.753C904.805 0.000156403 903.225 1.5808 903.225 3.52838V38.8106Z" fill="white"/>
</g>
<mask id="mask99_100_183" style="mask-type:luminance" maskUnits="userSpaceOnUse" x="927" y="0" width="37" height="43">
<path d="M963.205 42.3389H927.923V0.000156403H963.205V42.3389Z" fill="white"/>
</mask>
<g mask="url(#mask99_100_183)">
<path d="M959.678 38.8106C959.678 40.7582 958.097 42.3389 956.15 42.3389H927.924V0.000156403H956.15C958.097 0.000156403 959.678 1.5808 959.678 3.52838V38.8106Z" fill="white"/>
</g>
<mask id="mask100_100_183" style="mask-type:luminance" maskUnits="userSpaceOnUse" x="899" y="56" width="36" height="43">
<path d="M934.979 98.79H899.696V56.4513H934.979V98.79Z" fill="white"/>
</mask>
<g mask="url(#mask100_100_183)">
<path d="M903.225 95.2618C903.225 97.2094 904.805 98.79 906.753 98.79H934.979V56.4513H906.753C904.805 56.4513 903.225 58.032 903.225 59.9796V95.2618Z" fill="white"/>
</g>
<mask id="mask101_100_183" style="mask-type:luminance" maskUnits="userSpaceOnUse" x="927" y="56" width="37" height="43">
<path d="M963.205 98.79H927.923V56.4513H963.205V98.79Z" fill="white"/>
</mask>
<g mask="url(#mask101_100_183)">
<path d="M959.678 95.2618C959.678 97.2094 958.097 98.79 956.15 98.79H927.924V56.4513H956.15C958.097 56.4513 959.678 58.032 959.678 59.9796V95.2618Z" fill="white"/>
</g>
<mask id="mask102_100_183" style="mask-type:luminance" maskUnits="userSpaceOnUse" x="899" y="112" width="36" height="44">
<path d="M934.979 155.242H899.696V112.903H934.979V155.242Z" fill="white"/>
</mask>
<g mask="url(#mask102_100_183)">
<path d="M903.225 151.714C903.225 153.662 904.805 155.242 906.753 155.242H934.979V112.903H906.753C904.805 112.903 903.225 114.484 903.225 116.432V151.714Z" fill="white"/>
</g>
<mask id="mask103_100_183" style="mask-type:luminance" maskUnits="userSpaceOnUse" x="927" y="112" width="37" height="44">
<path d="M963.205 155.242H927.923V112.903H963.205V155.242Z" fill="white"/>
</mask>
<g mask="url(#mask103_100_183)">
<path d="M959.678 151.714C959.678 153.662 958.097 155.242 956.15 155.242H927.924V112.903H956.15C958.097 112.903 959.678 114.484 959.678 116.432V151.714Z" fill="white"/>
</g>
<mask id="mask104_100_183" style="mask-type:luminance" maskUnits="userSpaceOnUse" x="899" y="169" width="36" height="43">
<path d="M934.979 211.693H899.696V169.355H934.979V211.693Z" fill="white"/>
</mask>
<g mask="url(#mask104_100_183)">
<path d="M903.225 208.165C903.225 210.113 904.805 211.693 906.753 211.693H934.979V169.355H906.753C904.805 169.355 903.225 170.935 903.225 172.883V208.165Z" fill="white"/>
</g>
<mask id="mask105_100_183" style="mask-type:luminance" maskUnits="userSpaceOnUse" x="927" y="169" width="37" height="43">
<path d="M963.205 211.693H927.923V169.355H963.205V211.693Z" fill="white"/>
</mask>
<g mask="url(#mask105_100_183)">
<path d="M959.678 208.165C959.678 210.113 958.097 211.693 956.15 211.693H927.924V169.355H956.15C958.097 169.355 959.678 170.935 959.678 172.883V208.165Z" fill="white"/>
</g>
<mask id="mask106_100_183" style="mask-type:luminance" maskUnits="userSpaceOnUse" x="927" y="225" width="37" height="44">
<path d="M963.205 268.145H927.923V225.806H963.205V268.145Z" fill="white"/>
</mask>
<g mask="url(#mask106_100_183)">
<path d="M931.451 264.616C931.451 266.564 933.032 268.145 934.979 268.145H963.205V225.806H934.979C933.032 225.806 931.451 227.386 931.451 229.334V264.616Z" fill="white"/>
</g>
<mask id="mask107_100_183" style="mask-type:luminance" maskUnits="userSpaceOnUse" x="956" y="225" width="36" height="44">
<path d="M991.432 268.145H956.149V225.806H991.432V268.145Z" fill="white"/>
</mask>
<g mask="url(#mask107_100_183)">
<path d="M987.902 264.616C987.902 266.564 986.322 268.145 984.374 268.145H956.148V225.806H984.374C986.322 225.806 987.902 227.386 987.902 229.334V264.616Z" fill="white"/>
</g>
</g>
<mask id="mask108_100_183" style="mask-type:luminance" maskUnits="userSpaceOnUse" x="860" y="-78" width="425" height="424">
<path d="M860.887 -77.6211H1284.27V345.766H860.887V-77.6211Z" fill="white"/>
</mask>
<g mask="url(#mask108_100_183)">
<mask id="mask109_100_183" style="mask-type:luminance" maskUnits="userSpaceOnUse" x="984" y="56" width="36" height="43">
<path d="M1019.66 98.79H984.374V56.4513H1019.66V98.79Z" fill="white"/>
</mask>
<g mask="url(#mask109_100_183)">
<path d="M987.902 95.2618C987.902 97.2094 989.483 98.79 991.431 98.79H1019.66V56.4513H991.431C989.483 56.4513 987.902 58.032 987.902 59.9796V95.2618Z" fill="white"/>
</g>
<mask id="mask110_100_183" style="mask-type:luminance" maskUnits="userSpaceOnUse" x="1012" y="56" width="36" height="43">
<path d="M1047.88 98.79H1012.6V56.4513H1047.88V98.79Z" fill="white"/>
</mask>
<g mask="url(#mask110_100_183)">
<path d="M1044.35 95.2618C1044.35 97.2094 1042.77 98.79 1040.83 98.79H1012.6V56.4513H1040.83C1042.77 56.4513 1044.35 58.032 1044.35 59.9796V95.2618Z" fill="white"/>
</g>
<mask id="mask111_100_183" style="mask-type:luminance" maskUnits="userSpaceOnUse" x="984" y="112" width="36" height="44">
<path d="M1019.66 155.242H984.374V112.903H1019.66V155.242Z" fill="white"/>
</mask>
<g mask="url(#mask111_100_183)">
<path d="M987.902 151.714C987.902 153.662 989.483 155.242 991.431 155.242H1019.66V112.903H991.431C989.483 112.903 987.902 114.484 987.902 116.432V151.714Z" fill="white"/>
</g>
<mask id="mask112_100_183" style="mask-type:luminance" maskUnits="userSpaceOnUse" x="1012" y="112" width="36" height="44">
<path d="M1047.88 155.242H1012.6V112.903H1047.88V155.242Z" fill="white"/>
</mask>
<g mask="url(#mask112_100_183)">
<path d="M1044.35 151.714C1044.35 153.662 1042.77 155.242 1040.83 155.242H1012.6V112.903H1040.83C1042.77 112.903 1044.35 114.484 1044.35 116.432V151.714Z" fill="white"/>
</g>
<mask id="mask113_100_183" style="mask-type:luminance" maskUnits="userSpaceOnUse" x="984" y="169" width="36" height="43">
<path d="M1019.66 211.693H984.374V169.355H1019.66V211.693Z" fill="white"/>
</mask>
<g mask="url(#mask113_100_183)">
<path d="M987.902 208.165C987.902 210.113 989.483 211.693 991.431 211.693H1019.66V169.355H991.431C989.483 169.355 987.902 170.935 987.902 172.883V208.165Z" fill="white"/>
</g>
<mask id="mask114_100_183" style="mask-type:luminance" maskUnits="userSpaceOnUse" x="1012" y="169" width="36" height="43">
<path d="M1047.88 211.693H1012.6V169.355H1047.88V211.693Z" fill="white"/>
</mask>
<g mask="url(#mask114_100_183)">
<path d="M1044.35 208.165C1044.35 210.113 1042.77 211.693 1040.83 211.693H1012.6V169.355H1040.83C1042.77 169.355 1044.35 170.935 1044.35 172.883V208.165Z" fill="white"/>
</g>
<mask id="mask115_100_183" style="mask-type:luminance" maskUnits="userSpaceOnUse" x="1012" y="225" width="36" height="44">
<path d="M1047.88 268.145H1012.6V225.806H1047.88V268.145Z" fill="white"/>
</mask>
<g mask="url(#mask115_100_183)">
<path d="M1016.13 264.616C1016.13 266.564 1017.71 268.145 1019.66 268.145H1047.88V225.806H1019.66C1017.71 225.806 1016.13 227.386 1016.13 229.334V264.616Z" fill="white"/>
</g>
<mask id="mask116_100_183" style="mask-type:luminance" maskUnits="userSpaceOnUse" x="1040" y="225" width="37" height="44">
<path d="M1076.11 268.145H1040.83V225.806H1076.11V268.145Z" fill="white"/>
</mask>
<g mask="url(#mask116_100_183)">
<path d="M1040.83 268.145V225.806H1076.11V268.145H1040.83Z" fill="white"/>
</g>
<mask id="mask117_100_183" style="mask-type:luminance" maskUnits="userSpaceOnUse" x="1069" y="225" width="36" height="44">
<path d="M1104.33 268.145H1069.05V225.806H1104.33V268.145Z" fill="white"/>
</mask>
<g mask="url(#mask117_100_183)">
<path d="M1069.05 268.145V225.806H1104.33V268.145H1069.05Z" fill="white"/>
</g>
<mask id="mask118_100_183" style="mask-type:luminance" maskUnits="userSpaceOnUse" x="1097" y="225" width="36" height="44">
<path d="M1132.56 268.145H1097.28V225.806H1132.56V268.145Z" fill="white"/>
</mask>
<g mask="url(#mask118_100_183)">
<path d="M1129.03 264.616C1129.03 266.564 1127.45 268.145 1125.5 268.145H1097.28V225.806H1125.5C1127.45 225.806 1129.03 227.386 1129.03 229.334V264.616Z" fill="white"/>
</g>
<mask id="mask119_100_183" style="mask-type:luminance" maskUnits="userSpaceOnUse" x="1097" y="169" width="36" height="43">
<path d="M1132.56 211.693H1097.28V169.355H1132.56V211.693Z" fill="white"/>
</mask>
<g mask="url(#mask119_100_183)">
<path d="M1100.81 208.165C1100.81 210.113 1102.39 211.693 1104.33 211.693H1132.56V169.355H1104.33C1102.39 169.355 1100.81 170.935 1100.81 172.883V208.165Z" fill="white"/>
</g>
<mask id="mask120_100_183" style="mask-type:luminance" maskUnits="userSpaceOnUse" x="1125" y="169" width="36" height="43">
<path d="M1160.79 211.693H1125.5V169.355H1160.79V211.693Z" fill="white"/>
</mask>
<g mask="url(#mask120_100_183)">
<path d="M1157.26 208.165C1157.26 210.113 1155.68 211.693 1153.73 211.693H1125.5V169.355H1153.73C1155.68 169.355 1157.26 170.935 1157.26 172.883V208.165Z" fill="white"/>
</g>
<mask id="mask121_100_183" style="mask-type:luminance" maskUnits="userSpaceOnUse" x="1012" y="0" width="36" height="43">
<path d="M1047.88 42.3389H1012.6V0.000156403H1047.88V42.3389Z" fill="white"/>
</mask>
<g mask="url(#mask121_100_183)">
<path d="M1016.13 38.8106C1016.13 40.7582 1017.71 42.3389 1019.66 42.3389H1047.88V0.000156403H1019.66C1017.71 0.000156403 1016.13 1.5808 1016.13 3.52838V38.8106Z" fill="white"/>
</g>
<mask id="mask122_100_183" style="mask-type:luminance" maskUnits="userSpaceOnUse" x="1040" y="0" width="37" height="43">
<path d="M1076.11 42.3389H1040.83V0.000156403H1076.11V42.3389Z" fill="white"/>
</mask>
<g mask="url(#mask122_100_183)">
<path d="M1040.83 42.3389V0.000156403H1076.11V42.3389H1040.83Z" fill="white"/>
</g>
<mask id="mask123_100_183" style="mask-type:luminance" maskUnits="userSpaceOnUse" x="1069" y="0" width="36" height="43">
<path d="M1104.33 42.3389H1069.05V0.000156403H1104.33V42.3389Z" fill="white"/>
</mask>
<g mask="url(#mask123_100_183)">
<path d="M1069.05 42.3389V0.000156403H1104.33V42.3389H1069.05Z" fill="white"/>
</g>
<mask id="mask124_100_183" style="mask-type:luminance" maskUnits="userSpaceOnUse" x="1097" y="0" width="36" height="43">
<path d="M1132.56 42.3389H1097.28V0.000156403H1132.56V42.3389Z" fill="white"/>
</mask>
<g mask="url(#mask124_100_183)">
<path d="M1097.28 42.3389V0.000156403H1132.56V42.3389H1097.28Z" fill="white"/>
</g>
<mask id="mask125_100_183" style="mask-type:luminance" maskUnits="userSpaceOnUse" x="1125" y="0" width="36" height="43">
<path d="M1160.79 42.3389H1125.5V0.000156403H1160.79V42.3389Z" fill="white"/>
</mask>
<g mask="url(#mask125_100_183)">
<path d="M1157.26 38.8106C1157.26 40.7582 1155.68 42.3389 1153.73 42.3389H1125.5V0.000156403H1153.73C1155.68 0.000156403 1157.26 1.5808 1157.26 3.52838V38.8106Z" fill="white"/>
</g>
<mask id="mask126_100_183" style="mask-type:luminance" maskUnits="userSpaceOnUse" x="1097" y="56" width="36" height="43">
<path d="M1132.56 98.79H1097.28V56.4513H1132.56V98.79Z" fill="white"/>
</mask>
<g mask="url(#mask126_100_183)">
<path d="M1100.81 95.2618C1100.81 97.2094 1102.39 98.79 1104.33 98.79H1132.56V56.4513H1104.33C1102.39 56.4513 1100.81 58.032 1100.81 59.9796V95.2618Z" fill="white"/>
</g>
<mask id="mask127_100_183" style="mask-type:luminance" maskUnits="userSpaceOnUse" x="1125" y="56" width="36" height="43">
<path d="M1160.79 98.79H1125.5V56.4513H1160.79V98.79Z" fill="white"/>
</mask>
<g mask="url(#mask127_100_183)">
<path d="M1157.26 95.2618C1157.26 97.2094 1155.68 98.79 1153.73 98.79H1125.5V56.4513H1153.73C1155.68 56.4513 1157.26 58.032 1157.26 59.9796V95.2618Z" fill="white"/>
</g>
</g>
<mask id="mask128_100_183" style="mask-type:luminance" maskUnits="userSpaceOnUse" x="1058" y="-78" width="424" height="424">
<path d="M1058.47 -77.6211H1481.86V345.766H1058.47V-77.6211Z" fill="white"/>
</mask>
<g mask="url(#mask128_100_183)">
<mask id="mask129_100_183" style="mask-type:luminance" maskUnits="userSpaceOnUse" x="1181" y="0" width="37" height="43">
<path d="M1217.24 42.3389H1181.96V0.000156403H1217.24V42.3389Z" fill="white"/>
</mask>
<g mask="url(#mask129_100_183)">
<path d="M1185.48 38.8106C1185.48 40.7582 1187.07 42.3389 1189.01 42.3389H1217.24V0.000156403H1189.01C1187.07 0.000156403 1185.48 1.5808 1185.48 3.52838V38.8106Z" fill="white"/>
</g>
<mask id="mask130_100_183" style="mask-type:luminance" maskUnits="userSpaceOnUse" x="1210" y="0" width="36" height="43">
<path d="M1245.46 42.3389H1210.18V0.000156403H1245.46V42.3389Z" fill="white"/>
</mask>
<g mask="url(#mask130_100_183)">
<path d="M1210.18 42.3389V0.000156403H1245.46V42.3389H1210.18Z" fill="white"/>
</g>
<mask id="mask131_100_183" style="mask-type:luminance" maskUnits="userSpaceOnUse" x="1238" y="0" width="36" height="43">
<path d="M1273.69 42.3389H1238.41V0.000156403H1273.69V42.3389Z" fill="white"/>
</mask>
<g mask="url(#mask131_100_183)">
<path d="M1238.41 42.3389V0.000156403H1273.69V42.3389H1238.41Z" fill="white"/>
</g>
<mask id="mask132_100_183" style="mask-type:luminance" maskUnits="userSpaceOnUse" x="1266" y="0" width="36" height="43">
<path d="M1301.92 42.3389H1266.63V0.000156403H1301.92V42.3389Z" fill="white"/>
</mask>
<g mask="url(#mask132_100_183)">
<path d="M1266.63 42.3389V0.000156403H1301.92V42.3389H1266.63Z" fill="white"/>
</g>
<mask id="mask133_100_183" style="mask-type:luminance" maskUnits="userSpaceOnUse" x="1294" y="0" width="37" height="43">
<path d="M1330.14 42.3389H1294.86V0.000156403H1330.14V42.3389Z" fill="white"/>
</mask>
<g mask="url(#mask133_100_183)">
<path d="M1294.86 42.3389V0.000156403H1330.14V42.3389H1294.86Z" fill="white"/>
</g>
<mask id="mask134_100_183" style="mask-type:luminance" maskUnits="userSpaceOnUse" x="1323" y="0" width="36" height="43">
<path d="M1358.37 42.3389H1323.08V0.000156403H1358.37V42.3389Z" fill="white"/>
</mask>
<g mask="url(#mask134_100_183)">
<path d="M1354.84 38.8106C1354.84 40.7582 1353.26 42.3389 1351.31 42.3389H1323.08V0.000156403H1351.31C1353.26 0.000156403 1354.84 1.5808 1354.84 3.52838V38.8106Z" fill="white"/>
</g>
<mask id="mask135_100_183" style="mask-type:luminance" maskUnits="userSpaceOnUse" x="1210" y="56" width="36" height="43">
<path d="M1245.46 98.79H1210.18V56.4513H1245.46V98.79Z" fill="white"/>
</mask>
<g mask="url(#mask135_100_183)">
<path d="M1213.71 95.2618C1213.71 97.2094 1215.29 98.79 1217.24 98.79H1245.46V56.4513H1217.24C1215.29 56.4513 1213.71 58.032 1213.71 59.9796V95.2618Z" fill="white"/>
</g>
<mask id="mask136_100_183" style="mask-type:luminance" maskUnits="userSpaceOnUse" x="1238" y="56" width="36" height="43">
<path d="M1273.69 98.79H1238.41V56.4513H1273.69V98.79Z" fill="white"/>
</mask>
<g mask="url(#mask136_100_183)">
<path d="M1270.16 95.2618C1270.16 97.2094 1268.58 98.79 1266.63 98.79H1238.41V56.4513H1266.63C1268.58 56.4513 1270.16 58.032 1270.16 59.9796V95.2618Z" fill="white"/>
</g>
<mask id="mask137_100_183" style="mask-type:luminance" maskUnits="userSpaceOnUse" x="1181" y="112" width="37" height="44">
<path d="M1217.24 155.242H1181.96V112.903H1217.24V155.242Z" fill="white"/>
</mask>
<g mask="url(#mask137_100_183)">
<path d="M1185.48 151.714C1185.48 153.662 1187.07 155.242 1189.01 155.242H1217.24V112.903H1189.01C1187.07 112.903 1185.48 114.484 1185.48 116.432V151.714Z" fill="white"/>
</g>
<mask id="mask138_100_183" style="mask-type:luminance" maskUnits="userSpaceOnUse" x="1210" y="112" width="36" height="44">
<path d="M1245.46 155.242H1210.18V112.903H1245.46V155.242Z" fill="white"/>
</mask>
<g mask="url(#mask138_100_183)">
<path d="M1241.94 151.714C1241.94 153.662 1240.35 155.242 1238.41 155.242H1210.18V112.903H1238.41C1240.35 112.903 1241.94 114.484 1241.94 116.432V151.714Z" fill="white"/>
</g>
<mask id="mask139_100_183" style="mask-type:luminance" maskUnits="userSpaceOnUse" x="1181" y="169" width="37" height="43">
<path d="M1217.24 211.693H1181.96V169.355H1217.24V211.693Z" fill="white"/>
</mask>
<g mask="url(#mask139_100_183)">
<path d="M1185.48 208.165C1185.48 210.113 1187.07 211.693 1189.01 211.693H1217.24V169.355H1189.01C1187.07 169.355 1185.48 170.935 1185.48 172.883V208.165Z" fill="white"/>
</g>
<mask id="mask140_100_183" style="mask-type:luminance" maskUnits="userSpaceOnUse" x="1210" y="169" width="36" height="43">
<path d="M1245.46 211.693H1210.18V169.355H1245.46V211.693Z" fill="white"/>
</mask>
<g mask="url(#mask140_100_183)">
<path d="M1241.94 208.165C1241.94 210.113 1240.35 211.693 1238.41 211.693H1210.18V169.355H1238.41C1240.35 169.355 1241.94 170.935 1241.94 172.883V208.165Z" fill="white"/>
</g>
<mask id="mask141_100_183" style="mask-type:luminance" maskUnits="userSpaceOnUse" x="1210" y="225" width="36" height="44">
<path d="M1245.46 268.145H1210.18V225.806H1245.46V268.145Z" fill="white"/>
</mask>
<g mask="url(#mask141_100_183)">
<path d="M1213.71 264.616C1213.71 266.564 1215.29 268.145 1217.24 268.145H1245.46V225.806H1217.24C1215.29 225.806 1213.71 227.386 1213.71 229.334V264.616Z" fill="white"/>
</g>
<mask id="mask142_100_183" style="mask-type:luminance" maskUnits="userSpaceOnUse" x="1238" y="225" width="36" height="44">
<path d="M1273.69 268.145H1238.41V225.806H1273.69V268.145Z" fill="white"/>
</mask>
<g mask="url(#mask142_100_183)">
<path d="M1238.41 268.145V225.806H1273.69V268.145H1238.41Z" fill="white"/>
</g>
<mask id="mask143_100_183" style="mask-type:luminance" maskUnits="userSpaceOnUse" x="1266" y="225" width="36" height="44">
<path d="M1301.92 268.145H1266.63V225.806H1301.92V268.145Z" fill="white"/>
</mask>
<g mask="url(#mask143_100_183)">
<path d="M1266.63 268.145V225.806H1301.92V268.145H1266.63Z" fill="white"/>
</g>
<mask id="mask144_100_183" style="mask-type:luminance" maskUnits="userSpaceOnUse" x="1294" y="225" width="37" height="44">
<path d="M1330.14 268.145H1294.86V225.806H1330.14V268.145Z" fill="white"/>
</mask>
<g mask="url(#mask144_100_183)">
<path d="M1326.62 264.616C1326.62 266.564 1325.03 268.145 1323.09 268.145H1294.86V225.806H1323.09C1325.03 225.806 1326.62 227.386 1326.62 229.334V264.616Z" fill="white"/>
</g>
<mask id="mask145_100_183" style="mask-type:luminance" maskUnits="userSpaceOnUse" x="1294" y="169" width="37" height="43">
<path d="M1330.14 211.693H1294.86V169.355H1330.14V211.693Z" fill="white"/>
</mask>
<g mask="url(#mask145_100_183)">
<path d="M1298.39 208.165C1298.39 210.113 1299.97 211.693 1301.92 211.693H1330.14V169.355H1301.92C1299.97 169.355 1298.39 170.935 1298.39 172.883V208.165Z" fill="white"/>
</g>
<mask id="mask146_100_183" style="mask-type:luminance" maskUnits="userSpaceOnUse" x="1323" y="169" width="36" height="43">
<path d="M1358.37 211.693H1323.08V169.355H1358.37V211.693Z" fill="white"/>
</mask>
<g mask="url(#mask146_100_183)">
<path d="M1354.84 208.165C1354.84 210.113 1353.26 211.693 1351.31 211.693H1323.08V169.355H1351.31C1353.26 169.355 1354.84 170.935 1354.84 172.883V208.165Z" fill="white"/>
</g>
<mask id="mask147_100_183" style="mask-type:luminance" maskUnits="userSpaceOnUse" x="1294" y="112" width="37" height="44">
<path d="M1330.14 155.242H1294.86V112.903H1330.14V155.242Z" fill="white"/>
</mask>
<g mask="url(#mask147_100_183)">
<path d="M1298.39 151.714C1298.39 153.662 1299.97 155.242 1301.92 155.242H1330.14V112.903H1301.92C1299.97 112.903 1298.39 114.484 1298.39 116.432V151.714Z" fill="white"/>
</g>
<mask id="mask148_100_183" style="mask-type:luminance" maskUnits="userSpaceOnUse" x="1323" y="112" width="36" height="44">
<path d="M1358.37 155.242H1323.08V112.903H1358.37V155.242Z" fill="white"/>
</mask>
<g mask="url(#mask148_100_183)">
<path d="M1354.84 151.714C1354.84 153.662 1353.26 155.242 1351.31 155.242H1323.08V112.903H1351.31C1353.26 112.903 1354.84 114.484 1354.84 116.432V151.714Z" fill="white"/>
</g>
</g>
<mask id="mask149_100_183" style="mask-type:luminance" maskUnits="userSpaceOnUse" x="1256" y="-78" width="424" height="424">
<path d="M1256.05 -77.6211H1679.44V345.766H1256.05V-77.6211Z" fill="white"/>
</mask>
<g mask="url(#mask149_100_183)">
<mask id="mask150_100_183" style="mask-type:luminance" maskUnits="userSpaceOnUse" x="1379" y="56" width="36" height="43">
<path d="M1414.82 98.79H1379.54V56.4513H1414.82V98.79Z" fill="white"/>
</mask>
<g mask="url(#mask150_100_183)">
<path d="M1383.06 95.2618C1383.06 97.2094 1384.65 98.79 1386.59 98.79H1414.82V56.4513H1386.59C1384.65 56.4513 1383.06 58.032 1383.06 59.9796V95.2618Z" fill="white"/>
</g>
<mask id="mask151_100_183" style="mask-type:luminance" maskUnits="userSpaceOnUse" x="1407" y="56" width="37" height="43">
<path d="M1443.04 98.79H1407.76V56.4513H1443.04V98.79Z" fill="white"/>
</mask>
<g mask="url(#mask151_100_183)">
<path d="M1439.52 95.2618C1439.52 97.2094 1437.93 98.79 1435.99 98.79H1407.76V56.4513H1435.99C1437.93 56.4513 1439.52 58.032 1439.52 59.9796V95.2618Z" fill="white"/>
</g>
<mask id="mask152_100_183" style="mask-type:luminance" maskUnits="userSpaceOnUse" x="1379" y="112" width="36" height="44">
<path d="M1414.82 155.242H1379.54V112.903H1414.82V155.242Z" fill="white"/>
</mask>
<g mask="url(#mask152_100_183)">
<path d="M1383.06 151.714C1383.06 153.662 1384.65 155.242 1386.59 155.242H1414.82V112.903H1386.59C1384.65 112.903 1383.06 114.484 1383.06 116.432V151.714Z" fill="white"/>
</g>
<mask id="mask153_100_183" style="mask-type:luminance" maskUnits="userSpaceOnUse" x="1407" y="112" width="37" height="44">
<path d="M1443.04 155.242H1407.76V112.903H1443.04V155.242Z" fill="white"/>
</mask>
<g mask="url(#mask153_100_183)">
<path d="M1439.52 151.714C1439.52 153.662 1437.93 155.242 1435.99 155.242H1407.76V112.903H1435.99C1437.93 112.903 1439.52 114.484 1439.52 116.432V151.714Z" fill="white"/>
</g>
<mask id="mask154_100_183" style="mask-type:luminance" maskUnits="userSpaceOnUse" x="1379" y="169" width="36" height="43">
<path d="M1414.82 211.693H1379.54V169.355H1414.82V211.693Z" fill="white"/>
</mask>
<g mask="url(#mask154_100_183)">
<path d="M1383.06 208.165C1383.06 210.113 1384.65 211.693 1386.59 211.693H1414.82V169.355H1386.59C1384.65 169.355 1383.06 170.935 1383.06 172.883V208.165Z" fill="white"/>
</g>
<mask id="mask155_100_183" style="mask-type:luminance" maskUnits="userSpaceOnUse" x="1407" y="169" width="37" height="43">
<path d="M1443.04 211.693H1407.76V169.355H1443.04V211.693Z" fill="white"/>
</mask>
<g mask="url(#mask155_100_183)">
<path d="M1439.52 208.165C1439.52 210.113 1437.93 211.693 1435.99 211.693H1407.76V169.355H1435.99C1437.93 169.355 1439.52 170.935 1439.52 172.883V208.165Z" fill="white"/>
</g>
<mask id="mask156_100_183" style="mask-type:luminance" maskUnits="userSpaceOnUse" x="1407" y="225" width="37" height="44">
<path d="M1443.04 268.145H1407.76V225.806H1443.04V268.145Z" fill="white"/>
</mask>
<g mask="url(#mask156_100_183)">
<path d="M1411.29 264.616C1411.29 266.564 1412.87 268.145 1414.82 268.145H1443.05V225.806H1414.82C1412.87 225.806 1411.29 227.386 1411.29 229.334V264.616Z" fill="white"/>
</g>
<mask id="mask157_100_183" style="mask-type:luminance" maskUnits="userSpaceOnUse" x="1435" y="225" width="37" height="44">
<path d="M1471.27 268.145H1435.99V225.806H1471.27V268.145Z" fill="white"/>
</mask>
<g mask="url(#mask157_100_183)">
<path d="M1435.99 268.145V225.806H1471.27V268.145H1435.99Z" fill="white"/>
</g>
<mask id="mask158_100_183" style="mask-type:luminance" maskUnits="userSpaceOnUse" x="1464" y="225" width="36" height="44">
<path d="M1499.5 268.145H1464.21V225.806H1499.5V268.145Z" fill="white"/>
</mask>
<g mask="url(#mask158_100_183)">
<path d="M1464.21 268.145V225.806H1499.5V268.145H1464.21Z" fill="white"/>
</g>
<mask id="mask159_100_183" style="mask-type:luminance" maskUnits="userSpaceOnUse" x="1492" y="225" width="36" height="44">
<path d="M1527.72 268.145H1492.44V225.806H1527.72V268.145Z" fill="white"/>
</mask>
<g mask="url(#mask159_100_183)">
<path d="M1524.19 264.616C1524.19 266.564 1522.61 268.145 1520.67 268.145H1492.44V225.806H1520.67C1522.61 225.806 1524.19 227.386 1524.19 229.334V264.616Z" fill="white"/>
</g>
<mask id="mask160_100_183" style="mask-type:luminance" maskUnits="userSpaceOnUse" x="1407" y="0" width="37" height="43">
<path d="M1443.04 42.3389H1407.76V0.000156403H1443.04V42.3389Z" fill="white"/>
</mask>
<g mask="url(#mask160_100_183)">
<path d="M1411.29 38.8106C1411.29 40.7582 1412.87 42.3389 1414.82 42.3389H1443.05V0.000156403H1414.82C1412.87 0.000156403 1411.29 1.5808 1411.29 3.52838V38.8106Z" fill="white"/>
</g>
<mask id="mask161_100_183" style="mask-type:luminance" maskUnits="userSpaceOnUse" x="1435" y="0" width="37" height="43">
<path d="M1471.27 42.3389H1435.99V0.000156403H1471.27V42.3389Z" fill="white"/>
</mask>
<g mask="url(#mask161_100_183)">
<path d="M1435.99 42.3389V0.000156403H1471.27V42.3389H1435.99Z" fill="white"/>
</g>
<mask id="mask162_100_183" style="mask-type:luminance" maskUnits="userSpaceOnUse" x="1464" y="0" width="36" height="43">
<path d="M1499.5 42.3389H1464.21V0.000156403H1499.5V42.3389Z" fill="white"/>
</mask>
<g mask="url(#mask162_100_183)">
<path d="M1464.21 42.3389V0.000156403H1499.5V42.3389H1464.21Z" fill="white"/>
</g>
<mask id="mask163_100_183" style="mask-type:luminance" maskUnits="userSpaceOnUse" x="1492" y="0" width="36" height="43">
<path d="M1527.72 42.3389H1492.44V0.000156403H1527.72V42.3389Z" fill="white"/>
</mask>
<g mask="url(#mask163_100_183)">
<path d="M1524.19 38.8106C1524.19 40.7582 1522.61 42.3389 1520.67 42.3389H1492.44V0.000156403H1520.67C1522.61 0.000156403 1524.19 1.5808 1524.19 3.52838V38.8106Z" fill="white"/>
</g>
<mask id="mask164_100_183" style="mask-type:luminance" maskUnits="userSpaceOnUse" x="1492" y="56" width="36" height="43">
<path d="M1527.72 98.79H1492.44V56.4513H1527.72V98.79Z" fill="white"/>
</mask>
<g mask="url(#mask164_100_183)">
<path d="M1495.97 95.2618C1495.97 97.2094 1497.55 98.79 1499.5 98.79H1527.72V56.4513H1499.5C1497.55 56.4513 1495.97 58.032 1495.97 59.9796V95.2618Z" fill="white"/>
</g>
<mask id="mask165_100_183" style="mask-type:luminance" maskUnits="userSpaceOnUse" x="1520" y="56" width="36" height="43">
<path d="M1555.95 98.79H1520.67V56.4513H1555.95V98.79Z" fill="white"/>
</mask>
<g mask="url(#mask165_100_183)">
<path d="M1552.42 95.2618C1552.42 97.2094 1550.84 98.79 1548.89 98.79H1520.66V56.4513H1548.89C1550.84 56.4513 1552.42 58.032 1552.42 59.9796V95.2618Z" fill="white"/>
</g>
<mask id="mask166_100_183" style="mask-type:luminance" maskUnits="userSpaceOnUse" x="1492" y="112" width="36" height="44">
<path d="M1527.72 155.242H1492.44V112.903H1527.72V155.242Z" fill="white"/>
</mask>
<g mask="url(#mask166_100_183)">
<path d="M1495.97 151.714C1495.97 153.662 1497.55 155.242 1499.5 155.242H1527.72V112.903H1499.5C1497.55 112.903 1495.97 114.484 1495.97 116.432V151.714Z" fill="white"/>
</g>
<mask id="mask167_100_183" style="mask-type:luminance" maskUnits="userSpaceOnUse" x="1520" y="112" width="36" height="44">
<path d="M1555.95 155.242H1520.67V112.903H1555.95V155.242Z" fill="white"/>
</mask>
<g mask="url(#mask167_100_183)">
<path d="M1552.42 151.714C1552.42 153.662 1550.84 155.242 1548.89 155.242H1520.66V112.903H1548.89C1550.84 112.903 1552.42 114.484 1552.42 116.432V151.714Z" fill="white"/>
</g>
<mask id="mask168_100_183" style="mask-type:luminance" maskUnits="userSpaceOnUse" x="1492" y="169" width="36" height="43">
<path d="M1527.72 211.693H1492.44V169.355H1527.72V211.693Z" fill="white"/>
</mask>
<g mask="url(#mask168_100_183)">
<path d="M1495.97 208.165C1495.97 210.113 1497.55 211.693 1499.5 211.693H1527.72V169.355H1499.5C1497.55 169.355 1495.97 170.935 1495.97 172.883V208.165Z" fill="white"/>
</g>
<mask id="mask169_100_183" style="mask-type:luminance" maskUnits="userSpaceOnUse" x="1520" y="169" width="36" height="43">
<path d="M1555.95 211.693H1520.67V169.355H1555.95V211.693Z" fill="white"/>
</mask>
<g mask="url(#mask169_100_183)">
<path d="M1552.42 208.165C1552.42 210.113 1550.84 211.693 1548.89 211.693H1520.66V169.355H1548.89C1550.84 169.355 1552.42 170.935 1552.42 172.883V208.165Z" fill="white"/>
</g>
</g>
<mask id="mask170_100_183" style="mask-type:luminance" maskUnits="userSpaceOnUse" x="1453" y="-78" width="425" height="424">
<path d="M1453.63 -77.6211H1877.02V345.766H1453.63V-77.6211Z" fill="white"/>
</mask>
<g mask="url(#mask170_100_183)">
<mask id="mask171_100_183" style="mask-type:luminance" maskUnits="userSpaceOnUse" x="1577" y="0" width="36" height="43">
<path d="M1612.4 42.3389H1577.12V0.000156403H1612.4V42.3389Z" fill="white"/>
</mask>
<g mask="url(#mask171_100_183)">
<path d="M1580.65 38.8106C1580.65 40.7582 1582.23 42.3389 1584.17 42.3389H1612.4V0.000156403H1584.17C1582.23 0.000156403 1580.65 1.5808 1580.65 3.52838V38.8106Z" fill="white"/>
</g>
<mask id="mask172_100_183" style="mask-type:luminance" maskUnits="userSpaceOnUse" x="1605" y="0" width="36" height="43">
<path d="M1640.63 42.3389H1605.34V0.000156403H1640.63V42.3389Z" fill="white"/>
</mask>
<g mask="url(#mask172_100_183)">
<path d="M1605.34 42.3389V0.000156403H1640.63V42.3389H1605.34Z" fill="white"/>
</g>
<mask id="mask173_100_183" style="mask-type:luminance" maskUnits="userSpaceOnUse" x="1577" y="56" width="36" height="43">
<path d="M1612.4 98.79H1577.12V56.4513H1612.4V98.79Z" fill="white"/>
</mask>
<g mask="url(#mask173_100_183)">
<path d="M1580.65 95.2618C1580.65 97.2094 1582.23 98.79 1584.17 98.79H1612.4V56.4513H1584.17C1582.23 56.4513 1580.65 58.032 1580.65 59.9796V95.2618Z" fill="white"/>
</g>
<mask id="mask174_100_183" style="mask-type:luminance" maskUnits="userSpaceOnUse" x="1605" y="56" width="36" height="43">
<path d="M1640.63 98.79H1605.34V56.4513H1640.63V98.79Z" fill="white"/>
</mask>
<g mask="url(#mask174_100_183)">
<path d="M1637.1 95.2618C1637.1 97.2094 1635.52 98.79 1633.57 98.79H1605.35V56.4513H1633.57C1635.52 56.4513 1637.1 58.032 1637.1 59.9796V95.2618Z" fill="white"/>
</g>
<mask id="mask175_100_183" style="mask-type:luminance" maskUnits="userSpaceOnUse" x="1577" y="112" width="36" height="44">
<path d="M1612.4 155.242H1577.12V112.903H1612.4V155.242Z" fill="white"/>
</mask>
<g mask="url(#mask175_100_183)">
<path d="M1580.65 151.714C1580.65 153.662 1582.23 155.242 1584.17 155.242H1612.4V112.903H1584.17C1582.23 112.903 1580.65 114.484 1580.65 116.432V151.714Z" fill="white"/>
</g>
<mask id="mask176_100_183" style="mask-type:luminance" maskUnits="userSpaceOnUse" x="1605" y="112" width="36" height="44">
<path d="M1640.63 155.242H1605.34V112.903H1640.63V155.242Z" fill="white"/>
</mask>
<g mask="url(#mask176_100_183)">
<path d="M1637.1 151.714C1637.1 153.662 1635.52 155.242 1633.57 155.242H1605.35V112.903H1633.57C1635.52 112.903 1637.1 114.484 1637.1 116.432V151.714Z" fill="white"/>
</g>
<mask id="mask177_100_183" style="mask-type:luminance" maskUnits="userSpaceOnUse" x="1577" y="169" width="36" height="43">
<path d="M1612.4 211.693H1577.12V169.355H1612.4V211.693Z" fill="white"/>
</mask>
<g mask="url(#mask177_100_183)">
<path d="M1580.65 208.165C1580.65 210.113 1582.23 211.693 1584.17 211.693H1612.4V169.355H1584.17C1582.23 169.355 1580.65 170.935 1580.65 172.883V208.165Z" fill="white"/>
</g>
<mask id="mask178_100_183" style="mask-type:luminance" maskUnits="userSpaceOnUse" x="1605" y="169" width="36" height="43">
<path d="M1640.63 211.693H1605.34V169.355H1640.63V211.693Z" fill="white"/>
</mask>
<g mask="url(#mask178_100_183)">
<path d="M1605.34 211.693V169.355H1640.63V211.693H1605.34Z" fill="white"/>
</g>
<mask id="mask179_100_183" style="mask-type:luminance" maskUnits="userSpaceOnUse" x="1577" y="225" width="36" height="44">
<path d="M1612.4 268.145H1577.12V225.806H1612.4V268.145Z" fill="white"/>
</mask>
<g mask="url(#mask179_100_183)">
<path d="M1580.65 264.616C1580.65 266.564 1582.23 268.145 1584.17 268.145H1612.4V225.806H1584.17C1582.23 225.806 1580.65 227.386 1580.65 229.334V264.616Z" fill="white"/>
</g>
<mask id="mask180_100_183" style="mask-type:luminance" maskUnits="userSpaceOnUse" x="1605" y="225" width="36" height="44">
<path d="M1640.63 268.145H1605.34V225.806H1640.63V268.145Z" fill="white"/>
</mask>
<g mask="url(#mask180_100_183)">
<path d="M1637.1 264.616C1637.1 266.564 1635.52 268.145 1633.57 268.145H1605.35V225.806H1633.57C1635.52 225.806 1637.1 227.386 1637.1 229.334V264.616Z" fill="white"/>
</g>
<mask id="mask181_100_183" style="mask-type:luminance" maskUnits="userSpaceOnUse" x="1633" y="0" width="36" height="43">
<path d="M1668.85 42.3389H1633.57V0.000156403H1668.85V42.3389Z" fill="white"/>
</mask>
<g mask="url(#mask181_100_183)">
<path d="M1633.57 42.3389V0.000156403H1668.85V42.3389H1633.57Z" fill="white"/>
</g>
<mask id="mask182_100_183" style="mask-type:luminance" maskUnits="userSpaceOnUse" x="1661" y="0" width="37" height="43">
<path d="M1697.08 42.3389H1661.8V0.000156403H1697.08V42.3389Z" fill="white"/>
</mask>
<g mask="url(#mask182_100_183)">
<path d="M1661.8 42.3389V0.000156403H1697.08V42.3389H1661.8Z" fill="white"/>
</g>
<mask id="mask183_100_183" style="mask-type:luminance" maskUnits="userSpaceOnUse" x="1690" y="0" width="36" height="43">
<path d="M1725.3 42.3389H1690.02V0.000156403H1725.3V42.3389Z" fill="white"/>
</mask>
<g mask="url(#mask183_100_183)">
<path d="M1721.77 38.8106C1721.77 40.7582 1720.19 42.3389 1718.25 42.3389H1690.02V0.000156403H1718.25C1720.19 0.000156403 1721.77 1.5808 1721.77 3.52838V38.8106Z" fill="white"/>
</g>
<mask id="mask184_100_183" style="mask-type:luminance" maskUnits="userSpaceOnUse" x="1690" y="56" width="36" height="43">
<path d="M1725.3 98.79H1690.02V56.4513H1725.3V98.79Z" fill="white"/>
</mask>
<g mask="url(#mask184_100_183)">
<path d="M1693.55 95.2618C1693.55 97.2094 1695.13 98.79 1697.08 98.79H1725.3V56.4513H1697.08C1695.13 56.4513 1693.55 58.032 1693.55 59.9796V95.2618Z" fill="white"/>
</g>
<mask id="mask185_100_183" style="mask-type:luminance" maskUnits="userSpaceOnUse" x="1718" y="56" width="36" height="43">
<path d="M1753.53 98.79H1718.25V56.4513H1753.53V98.79Z" fill="white"/>
</mask>
<g mask="url(#mask185_100_183)">
<path d="M1750 95.2618C1750 97.2094 1748.42 98.79 1746.47 98.79H1718.25V56.4513H1746.47C1748.42 56.4513 1750 58.032 1750 59.9796V95.2618Z" fill="white"/>
</g>
<mask id="mask186_100_183" style="mask-type:luminance" maskUnits="userSpaceOnUse" x="1661" y="112" width="37" height="44">
<path d="M1697.08 155.242H1661.8V112.903H1697.08V155.242Z" fill="white"/>
</mask>
<g mask="url(#mask186_100_183)">
<path d="M1665.32 151.714C1665.32 153.662 1666.9 155.242 1668.85 155.242H1697.08V112.903H1668.85C1666.9 112.903 1665.32 114.484 1665.32 116.432V151.714Z" fill="white"/>
</g>
<mask id="mask187_100_183" style="mask-type:luminance" maskUnits="userSpaceOnUse" x="1690" y="112" width="36" height="44">
<path d="M1725.3 155.242H1690.02V112.903H1725.3V155.242Z" fill="white"/>
</mask>
<g mask="url(#mask187_100_183)">
<path d="M1721.77 151.714C1721.77 153.662 1720.19 155.242 1718.25 155.242H1690.02V112.903H1718.25C1720.19 112.903 1721.77 114.484 1721.77 116.432V151.714Z" fill="white"/>
</g>
<mask id="mask188_100_183" style="mask-type:luminance" maskUnits="userSpaceOnUse" x="1633" y="169" width="36" height="43">
<path d="M1668.85 211.693H1633.57V169.355H1668.85V211.693Z" fill="white"/>
</mask>
<g mask="url(#mask188_100_183)">
<path d="M1633.57 211.693V169.355H1668.85V211.693H1633.57Z" fill="white"/>
</g>
<mask id="mask189_100_183" style="mask-type:luminance" maskUnits="userSpaceOnUse" x="1661" y="169" width="37" height="43">
<path d="M1697.08 211.693H1661.8V169.355H1697.08V211.693Z" fill="white"/>
</mask>
<g mask="url(#mask189_100_183)">
<path d="M1693.55 208.165C1693.55 210.113 1691.97 211.693 1690.02 211.693H1661.8V169.355H1690.02C1691.97 169.355 1693.55 170.935 1693.55 172.883V208.165Z" fill="white"/>
</g>
<mask id="mask190_100_183" style="mask-type:luminance" maskUnits="userSpaceOnUse" x="1661" y="225" width="37" height="44">
<path d="M1697.08 268.145H1661.8V225.806H1697.08V268.145Z" fill="white"/>
</mask>
<g mask="url(#mask190_100_183)">
<path d="M1665.32 264.616C1665.32 266.564 1666.9 268.145 1668.85 268.145H1697.08V225.806H1668.85C1666.9 225.806 1665.32 227.386 1665.32 229.334V264.616Z" fill="white"/>
</g>
<mask id="mask191_100_183" style="mask-type:luminance" maskUnits="userSpaceOnUse" x="1690" y="225" width="36" height="44">
<path d="M1725.3 268.145H1690.02V225.806H1725.3V268.145Z" fill="white"/>
</mask>
<g mask="url(#mask191_100_183)">
<path d="M1690.02 268.145V225.806H1725.3V268.145H1690.02Z" fill="white"/>
</g>
<mask id="mask192_100_183" style="mask-type:luminance" maskUnits="userSpaceOnUse" x="1718" y="225" width="36" height="44">
<path d="M1753.53 268.145H1718.25V225.806H1753.53V268.145Z" fill="white"/>
</mask>
<g mask="url(#mask192_100_183)">
<path d="M1750 264.616C1750 266.564 1748.42 268.145 1746.47 268.145H1718.25V225.806H1746.47C1748.42 225.806 1750 227.386 1750 229.334V264.616Z" fill="white"/>
</g>
</g>
</g>
</g>
<defs>
<clipPath id="clip0_100_183">
<rect width="1750" height="268.145" fill="white"/>
</clipPath>
</defs>
</svg>
