<svg width="115" height="174" viewBox="0 0 115 174" fill="none" xmlns="http://www.w3.org/2000/svg">
<mask id="mask0_41_20251" style="mask-type:luminance" maskUnits="userSpaceOnUse" x="0" y="36" width="23" height="29">
<path d="M0.499023 63.6992V37.251H22.373V63.6992H0.499023Z" fill="white" stroke="white"/>
</mask>
<g mask="url(#mask0_41_20251)">
<path d="M4.57422 63.6992H22.373V37.251H4.57422C3.58785 37.2511 2.78711 38.0517 2.78711 39.0381V61.9121C2.78725 62.8984 3.58794 63.6991 4.57422 63.6992Z" fill="#FFFFFF" stroke="#FFFFFF"/>
</g>
<mask id="mask1_41_20251" style="mask-type:luminance" maskUnits="userSpaceOnUse" x="18" y="36" width="24" height="29">
<path d="M18.7979 63.6992V37.251H40.6719V63.6992H18.7979Z" fill="white" stroke="white"/>
</mask>
<g mask="url(#mask1_41_20251)">
<path d="M36.5977 63.6992H18.7988V37.251H36.5977C37.584 37.2511 38.3848 38.0517 38.3848 39.0381V61.9121C38.3846 62.8984 37.5839 63.6991 36.5977 63.6992Z" fill="#FFFFFF" stroke="#FFFFFF"/>
</g>
<mask id="mask2_41_20251" style="mask-type:luminance" maskUnits="userSpaceOnUse" x="0" y="73" width="23" height="28">
<path d="M0.499023 100.297V73.8486H22.373V100.297H0.499023Z" fill="white" stroke="white"/>
</mask>
<g mask="url(#mask2_41_20251)">
<path d="M4.57422 100.297H22.373V73.8486H4.57422C3.58785 73.8488 2.78711 74.6493 2.78711 75.6357V98.5098C2.78725 99.496 3.58794 100.297 4.57422 100.297Z" fill="#FFFFFF" stroke="#FFFFFF"/>
</g>
<mask id="mask3_41_20251" style="mask-type:luminance" maskUnits="userSpaceOnUse" x="18" y="73" width="24" height="28">
<path d="M18.7979 100.297V73.8486H40.6719V100.297H18.7979Z" fill="white" stroke="white"/>
</mask>
<g mask="url(#mask3_41_20251)">
<path d="M36.5977 100.297H18.7988V73.8486H36.5977C37.584 73.8488 38.3848 74.6493 38.3848 75.6357V98.5098C38.3846 99.496 37.5839 100.297 36.5977 100.297Z" fill="#FFFFFF" stroke="#FFFFFF"/>
</g>
<mask id="mask4_41_20251" style="mask-type:luminance" maskUnits="userSpaceOnUse" x="0" y="109" width="23" height="29">
<path d="M0.499023 136.896V110.447H22.373V136.896H0.499023Z" fill="white" stroke="white"/>
</mask>
<g mask="url(#mask4_41_20251)">
<path d="M4.57422 136.896H22.373V110.447H4.57422C3.58785 110.447 2.78711 111.248 2.78711 112.234V135.108C2.78725 136.095 3.58794 136.895 4.57422 136.896Z" fill="#FFFFFF" stroke="#FFFFFF"/>
</g>
<mask id="mask5_41_20251" style="mask-type:luminance" maskUnits="userSpaceOnUse" x="18" y="109" width="24" height="29">
<path d="M18.7979 136.896V110.447H40.6719V136.896H18.7979Z" fill="white" stroke="white"/>
</mask>
<g mask="url(#mask5_41_20251)">
<path d="M36.5977 136.896H18.7988V110.447H36.5977C37.584 110.447 38.3848 111.248 38.3848 112.234V135.108C38.3846 136.095 37.5839 136.895 36.5977 136.896Z" fill="#FFFFFF" stroke="#FFFFFF"/>
</g>
<mask id="mask6_41_20251" style="mask-type:luminance" maskUnits="userSpaceOnUse" x="18" y="146" width="24" height="28">
<path d="M18.7979 173.493V147.045H40.6719V173.493H18.7979Z" fill="white" stroke="white"/>
</mask>
<g mask="url(#mask6_41_20251)">
<path d="M22.873 173.493H40.6719V147.045H22.873C21.8867 147.045 21.0859 147.846 21.0859 148.832V171.706C21.0861 172.692 21.8868 173.493 22.873 173.493Z" fill="#FFFFFF" stroke="#FFFFFF"/>
</g>
<mask id="mask7_41_20251" style="mask-type:luminance" maskUnits="userSpaceOnUse" x="36" y="146" width="24" height="28">
<path d="M37.0967 173.493V147.045H58.9707V173.493H37.0967Z" fill="white" stroke="white"/>
</mask>
<g mask="url(#mask7_41_20251)">
<path d="M37.0967 173.493V147.045H58.9707V173.493H37.0967Z" fill="#FFFFFF" stroke="#FFFFFF"/>
</g>
<mask id="mask8_41_20251" style="mask-type:luminance" maskUnits="userSpaceOnUse" x="54" y="146" width="24" height="28">
<path d="M55.3955 173.493V147.045H77.2695V173.493H55.3955Z" fill="white" stroke="white"/>
</mask>
<g mask="url(#mask8_41_20251)">
<path d="M55.3955 173.493V147.045H77.2695V173.493H55.3955Z" fill="#FFFFFF" stroke="#FFFFFF"/>
</g>
<mask id="mask9_41_20251" style="mask-type:luminance" maskUnits="userSpaceOnUse" x="73" y="146" width="24" height="28">
<path d="M73.6963 173.493V147.045H95.5703V173.493H73.6963Z" fill="white" stroke="white"/>
</mask>
<g mask="url(#mask9_41_20251)">
<path d="M91.4941 173.493H73.6953V147.045H91.4941C92.4805 147.045 93.2812 147.846 93.2812 148.832V171.706C93.2811 172.692 92.4804 173.493 91.4941 173.493Z" fill="#FFFFFF" stroke="#FFFFFF"/>
</g>
<mask id="mask10_41_20251" style="mask-type:luminance" maskUnits="userSpaceOnUse" x="73" y="109" width="24" height="29">
<path d="M73.6963 136.896V110.447H95.5703V136.896H73.6963Z" fill="white" stroke="white"/>
</mask>
<g mask="url(#mask10_41_20251)">
<path d="M77.7695 136.896H95.5684V110.447H77.7695C76.7832 110.447 75.9824 111.248 75.9824 112.234V135.108C75.9826 136.095 76.7833 136.895 77.7695 136.896Z" fill="#FFFFFF" stroke="#FFFFFF"/>
</g>
<mask id="mask11_41_20251" style="mask-type:luminance" maskUnits="userSpaceOnUse" x="91" y="109" width="24" height="29">
<path d="M91.9932 136.896V110.447H113.867V136.896H91.9932Z" fill="white" stroke="white"/>
</mask>
<g mask="url(#mask11_41_20251)">
<path d="M109.793 136.896H91.9941V110.447H109.793C110.779 110.447 111.58 111.248 111.58 112.234V135.108C111.58 136.095 110.779 136.895 109.793 136.896Z" fill="#FFFFFF" stroke="#FFFFFF"/>
</g>
<mask id="mask12_41_20251" style="mask-type:luminance" maskUnits="userSpaceOnUse" x="18" y="0" width="24" height="28">
<path d="M18.7979 27.1006V0.652344H40.6719V27.1006H18.7979Z" fill="white" stroke="white"/>
</mask>
<g mask="url(#mask12_41_20251)">
<path d="M22.873 27.1006H40.6719V0.652344H22.873C21.8867 0.652488 21.0859 1.45305 21.0859 2.43945V25.3135C21.0861 26.2998 21.8868 27.1004 22.873 27.1006Z" fill="#FFFFFF" stroke="#FFFFFF"/>
</g>
<mask id="mask13_41_20251" style="mask-type:luminance" maskUnits="userSpaceOnUse" x="36" y="0" width="24" height="28">
<path d="M37.0967 27.1006V0.652344H58.9707V27.1006H37.0967Z" fill="white" stroke="white"/>
</mask>
<g mask="url(#mask13_41_20251)">
<path d="M37.0967 27.1006V0.652344H58.9707V27.1006H37.0967Z" fill="#FFFFFF" stroke="#FFFFFF"/>
</g>
<mask id="mask14_41_20251" style="mask-type:luminance" maskUnits="userSpaceOnUse" x="54" y="0" width="24" height="28">
<path d="M55.3955 27.1006V0.652344H77.2695V27.1006H55.3955Z" fill="white" stroke="white"/>
</mask>
<g mask="url(#mask14_41_20251)">
<path d="M55.3955 27.1006V0.652344H77.2695V27.1006H55.3955Z" fill="#FFFFFF" stroke="#FFFFFF"/>
</g>
<mask id="mask15_41_20251" style="mask-type:luminance" maskUnits="userSpaceOnUse" x="73" y="0" width="24" height="28">
<path d="M73.6963 27.1006V0.652344H95.5703V27.1006H73.6963Z" fill="white" stroke="white"/>
</mask>
<g mask="url(#mask15_41_20251)">
<path d="M73.6963 27.1006V0.652344H95.5703V27.1006H73.6963Z" fill="#FFFFFF" stroke="#FFFFFF"/>
</g>
<mask id="mask16_41_20251" style="mask-type:luminance" maskUnits="userSpaceOnUse" x="91" y="0" width="24" height="28">
<path d="M91.9932 27.1006V0.652344H113.867V27.1006H91.9932Z" fill="white" stroke="white"/>
</mask>
<g mask="url(#mask16_41_20251)">
<path d="M109.793 27.1006H91.9941V0.652344H109.793C110.779 0.652488 111.58 1.45305 111.58 2.43945V25.3135C111.58 26.2998 110.779 27.1004 109.793 27.1006Z" fill="#FFFFFF" stroke="#FFFFFF"/>
</g>
<mask id="mask17_41_20251" style="mask-type:luminance" maskUnits="userSpaceOnUse" x="73" y="36" width="24" height="29">
<path d="M73.6963 63.6992V37.251H95.5703V63.6992H73.6963Z" fill="white" stroke="white"/>
</mask>
<g mask="url(#mask17_41_20251)">
<path d="M77.7695 63.6992H95.5684V37.251H77.7695C76.7832 37.2511 75.9824 38.0517 75.9824 39.0381V61.9121C75.9826 62.8984 76.7833 63.6991 77.7695 63.6992Z" fill="#FFFFFF" stroke="#FFFFFF"/>
</g>
<mask id="mask18_41_20251" style="mask-type:luminance" maskUnits="userSpaceOnUse" x="91" y="36" width="24" height="29">
<path d="M91.9932 63.6992V37.251H113.867V63.6992H91.9932Z" fill="white" stroke="white"/>
</mask>
<g mask="url(#mask18_41_20251)">
<path d="M109.793 63.6992H91.9941V37.251H109.793C110.779 37.2511 111.58 38.0517 111.58 39.0381V61.9121C111.58 62.8984 110.779 63.6991 109.793 63.6992Z" fill="#FFFFFF" stroke="#FFFFFF"/>
</g>
</svg>
